<svg width="72" height="48" fill="none" xmlns="http://www.w3.org/2000/svg">
    <path d="M24 48c13.255 0 24-10.745 24-24S37.255 0 24 0 0 10.745 0 24s10.745 24 24 24z" fill="#627EEA"/>
    <path d="M24.746 6.001v13.305l11.246 5.025-11.246-18.33z" fill="#fff" fill-opacity=".602"/>
    <path d="m24.743 6.001-11.247 18.33 11.247-5.025V6.001z" fill="#fff"/>
    <path d="M24.746 32.953v9.04L36 26.425l-11.253 6.528z" fill="#fff" fill-opacity=".602"/>
    <path d="M24.743 41.993v-9.042l-11.247-6.526 11.247 15.568z" fill="#fff"/>
    <path d="m24.746 30.86 11.246-6.53-11.246-5.021V30.86z" fill="#fff" fill-opacity=".2"/>
    <path d="m13.496 24.33 11.247 6.53V19.31L13.496 24.33z" fill="#fff" fill-opacity=".602"/>
    <path d="M24 48c13.255 0 24-10.745 24-24S37.255 0 24 0 0 10.745 0 24s10.745 24 24 24z" fill="#8247E5"/>
    <path d="M31.942 18.866c-.575-.335-1.324-.335-1.957 0l-4.49 2.567-3.05 1.675-4.49 2.567c-.576.335-1.325.335-1.958 0l-3.569-2.01c-.576-.334-.979-.948-.979-1.618v-3.963c0-.67.346-1.283.979-1.618l3.511-1.954c.576-.335 1.324-.335 1.958 0l3.511 1.954c.576.335.979.949.979 1.618v2.568l3.05-1.73v-2.568c0-.67-.345-1.284-.978-1.618l-6.505-3.684c-.576-.335-1.324-.335-1.957 0l-6.62 3.684a1.801 1.801 0 0 0-.979 1.618v7.424c0 .67.346 1.283.98 1.618l6.619 3.684c.576.335 1.324.335 1.957 0l4.49-2.512 3.051-1.73 4.49-2.512c.576-.335 1.324-.335 1.957 0l3.512 1.954c.575.335.978.949.978 1.618v3.963c0 .67-.345 1.284-.978 1.619l-3.512 2.01c-.575.334-1.324.334-1.957 0l-3.511-1.954c-.576-.335-.979-.95-.979-1.619V27.35l-3.05 1.73v2.567c0 .67.345 1.284.978 1.619l6.62 3.684c.575.334 1.324.334 1.957 0l6.62-3.684c.576-.335.978-.949.978-1.619v-7.423c0-.67-.345-1.284-.978-1.619l-6.678-3.74z" fill="#fff"/>
    <path d="M47.75 24c0 13.117-10.633 23.75-23.75 23.75S.25 37.117.25 24 10.883.25 24 .25 47.75 10.883 47.75 24z" fill="#4D526C" stroke="#242424" stroke-width=".5"/>
    <path d="M24 45.583c11.92 0 21.583-9.663 21.583-21.583C45.583 12.08 35.92 2.417 24 2.417 12.08 2.417 2.417 12.08 2.417 24c0 11.92 9.663 21.583 21.583 21.583zM47.75 24c0 13.117-10.633 23.75-23.75 23.75S.25 37.117.25 24 10.883.25 24 .25 47.75 10.883 47.75 24z" fill="#FBD48E" stroke="#242424" stroke-width=".5"/>
    <path d="M33.838 20.323c-.681-2.216-3.87-3.811-5.681-3.894a1.642 1.642 0 0 1-1.681-1.605c0-.608.455-1.329 1.677-1.329 1.91-.033 2.07-1.571 2.15-2.15v-.116a.083.083 0 0 0 0-.05l.043-.106H17.701l.023.107a.12.12 0 0 0 0 .05v.116c.064.578.24 2.116 2.147 2.14 1.222 0 1.66.73 1.68 1.328a1.661 1.661 0 0 1-1.684 1.605c-1.81.083-4.983 1.678-5.678 3.894-.85 2.854.635 5.69 1.316 6.78.904 1.45 4.539 6.09 5.416 7.217a1.329 1.329 0 0 0-.592 1.016c0 1.04 1.625 1.858 3.695 1.858s3.697-.811 3.697-1.858a1.33 1.33 0 0 0-.6-1.023c.886-1.12 4.518-5.76 5.428-7.21.664-1.09 2.163-3.926 1.289-6.77zm-4.369-9.044a23.154 23.154 0 0 1-5.445.625 23.179 23.179 0 0 1-5.429-.625h10.874zm-1.954 24.047c0 .91-1.568 1.662-3.491 1.662-1.924 0-3.489-.741-3.489-1.662a1.153 1.153 0 0 1 .568-.893c.89.5 1.9.745 2.92.71a5.575 5.575 0 0 0 2.921-.71 1.157 1.157 0 0 1 .572.893zm0 0c0 .91-1.568 1.662-3.491 1.662-1.924 0-3.489-.741-3.489-1.662a1.153 1.153 0 0 1 .568-.893c.89.5 1.9.745 2.92.71a5.575 5.575 0 0 0 2.921-.71 1.157 1.157 0 0 1 .572.893zm-.598-1.096a.113.113 0 0 0-.063 0 5.426 5.426 0 0 1-2.83.691 5.426 5.426 0 0 1-2.831-.691.103.103 0 0 0-.06 0c-.545-.698-4.531-5.758-5.455-7.246-.665-1.063-2.12-3.837-1.27-6.608.665-2.133 3.738-3.655 5.493-3.748a1.847 1.847 0 0 0 1.88-1.814c0-.7-.515-1.525-1.884-1.541-1.72-.02-1.88-1.37-1.947-1.954a23.08 23.08 0 0 0 6.074.79c2.05.01 4.092-.253 6.073-.783-.067.585-.223 1.933-1.944 1.953-1.372.017-1.873.84-1.883 1.542a1.845 1.845 0 0 0 1.877 1.814c1.744.086 4.84 1.614 5.495 3.74.847 2.765-.608 5.54-1.273 6.602-.93 1.495-4.9 6.555-5.452 7.26v-.007zm0 0a.113.113 0 0 0-.063 0 5.426 5.426 0 0 1-2.83.691 5.426 5.426 0 0 1-2.831-.691.103.103 0 0 0-.06 0c-.545-.698-4.531-5.758-5.455-7.246-.665-1.063-2.12-3.837-1.27-6.608.665-2.133 3.738-3.655 5.493-3.748a1.847 1.847 0 0 0 1.88-1.814c0-.7-.515-1.525-1.884-1.541-1.72-.02-1.88-1.37-1.947-1.954a23.08 23.08 0 0 0 6.074.79c2.05.01 4.092-.253 6.073-.783-.067.585-.223 1.933-1.944 1.953-1.372.017-1.873.84-1.883 1.542a1.845 1.845 0 0 0 1.877 1.814c1.744.086 4.84 1.614 5.495 3.74.847 2.765-.608 5.54-1.273 6.602-.93 1.495-4.9 6.555-5.452 7.26v-.007z" fill="#FBD48E"/>
    <circle cx="48" cy="24.001" r="22.047" fill="#4D526C"/>
    <path d="M48.002.278C34.92.278 24.282 10.918 24.282 24c0 13.082 10.638 23.721 23.72 23.721 13.082 0 23.721-10.639 23.721-23.72 0-13.083-10.639-23.722-23.72-23.722zm0 45.835c-12.214 0-22.114-9.9-22.114-22.114s9.9-22.114 22.114-22.114S70.116 11.785 70.116 24s-9.9 22.114-22.114 22.114z" fill="#FBD48E"/>
    <path fill-rule="evenodd" clip-rule="evenodd" d="M24 24C24 10.764 34.764 0 48 0s24 10.764 24 24-10.764 24-24 24-24-10.764-24-24zm2.165 0c0 12.06 9.775 21.835 21.835 21.835S69.835 36.06 69.835 24 60.06 2.165 48 2.165 26.165 11.94 26.165 24zm-1.886 0C24.28 10.918 34.92.28 48 .28 61.082.28 71.72 10.917 71.72 24c0 13.082-10.638 23.72-23.72 23.72-13.082 0-23.72-10.638-23.72-23.72zm1.607 0c0 12.214 9.9 22.114 22.114 22.114S70.114 36.214 70.114 24 60.214 1.886 48 1.886 25.886 11.786 25.886 24z" fill="#242424"/>
    <path fill-rule="evenodd" clip-rule="evenodd" d="M52.048 22.046v3.303h8.067v2.7h-8.067v8.068h-2.7V28.05H46.68v8.068h-2.7V28.05h-8.068v-2.7h8.132v-3.303H35.72v-3.07h8.325v-3.012c0-1.06.322-1.929.997-2.668.096-.096.128-.16.128-.16.225-.225.482-.45.804-.643l.353-.193a3.787 3.787 0 0 1 1.704-.386c.74 0 1.414.193 2.025.546.61.354 1.093.836 1.446 1.447.354.61.547 1.286.547 2.025v3.044h8.229v3.07h-8.23zm-2.7 0v3.303h-2.7v-3.303h2.7zm0-3.07v-3.012c0-.386-.129-.707-.386-.964-.29-.257-.579-.386-.964-.386-.354 0-.675.129-.932.386-.258.225-.386.546-.418.932v3.044h2.7z" fill="#FBD48E"/>
    <path fill-rule="evenodd" clip-rule="evenodd" d="M51.769 25.629v-3.862h8.229v-2.512h-8.23v-3.323c0-.689-.178-1.316-.508-1.885a3.624 3.624 0 0 0-1.345-1.345 3.703 3.703 0 0 0-1.885-.509c-.57 0-1.103.12-1.574.354l-.344.188c-.282.17-.513.368-.721.574a1 1 0 0 1-.148.18c-.622.683-.92 1.48-.92 2.475v3.291h-8.325v2.512h8.325v3.862h-8.132v2.141h8.068v8.068h2.142V27.77h3.226v8.068h2.142V27.77h8.067V25.63H51.77zm8.346-.28v2.7h-8.067v8.068h-2.7V28.05H46.68v8.068h-2.7V28.05h-8.068v-2.7h8.132v-3.303H35.72v-3.07h8.325v-3.012c0-1.06.322-1.929.997-2.668.096-.096.128-.16.128-.16.225-.225.482-.45.804-.643l.353-.193a3.787 3.787 0 0 1 1.704-.386c.74 0 1.414.193 2.025.546.61.354 1.093.836 1.446 1.447.354.61.547 1.286.547 2.025v3.044h8.229v3.07h-8.23v3.303h8.068zm-10.488-3.582v3.862h-3.258v-3.862h3.258zm0-2.512h-3.258V15.91c.037-.43.183-.827.506-1.113.31-.306.7-.461 1.123-.461.464 0 .817.16 1.15.456l.006.006.005.005c.313.313.468.707.468 1.162v3.291zM47.066 15c-.258.225-.386.546-.418.932v3.044h2.7v-3.012c0-.386-.129-.707-.386-.964-.29-.257-.579-.386-.964-.386-.354 0-.675.129-.932.386zm-.418 7.046h2.7v3.303h-2.7v-3.303z" fill="#242424"/>
</svg>
