<svg width="48" height="48" fill="none" xmlns="http://www.w3.org/2000/svg">
    <path d="M47.75 24c0 13.117-10.633 23.75-23.75 23.75S.25 37.117.25 24 10.883.25 24 .25 47.75 10.883 47.75 24z" fill="#4D526C" stroke="#242424" stroke-width=".5"/>
    <path d="M24 45.583c11.92 0 21.583-9.663 21.583-21.583C45.583 12.08 35.92 2.417 24 2.417 12.08 2.417 2.417 12.08 2.417 24c0 11.92 9.663 21.583 21.583 21.583zM47.75 24c0 13.117-10.633 23.75-23.75 23.75S.25 37.117.25 24 10.883.25 24 .25 47.75 10.883 47.75 24z" fill="#FBD48E" stroke="#242424" stroke-width=".5"/>
    <path d="M33.838 20.323c-.681-2.216-3.87-3.811-5.681-3.894a1.642 1.642 0 0 1-1.681-1.605c0-.608.455-1.329 1.677-1.329 1.91-.033 2.07-1.571 2.15-2.15v-.116a.083.083 0 0 0 0-.05l.043-.106H17.701l.023.107a.12.12 0 0 0 0 .05v.116c.064.578.24 2.116 2.147 2.14 1.222 0 1.66.73 1.68 1.328a1.661 1.661 0 0 1-1.684 1.605c-1.81.083-4.983 1.678-5.678 3.894-.85 2.854.635 5.69 1.316 6.78.904 1.45 4.539 6.09 5.416 7.217a1.329 1.329 0 0 0-.592 1.016c0 1.04 1.625 1.858 3.695 1.858s3.697-.811 3.697-1.858a1.33 1.33 0 0 0-.6-1.023c.886-1.12 4.518-5.76 5.428-7.21.664-1.09 2.163-3.926 1.289-6.77zm-4.369-9.044a23.154 23.154 0 0 1-5.445.625 23.179 23.179 0 0 1-5.429-.625h10.874zm-1.954 24.047c0 .91-1.568 1.662-3.491 1.662-1.924 0-3.489-.741-3.489-1.662a1.153 1.153 0 0 1 .568-.893c.89.5 1.9.745 2.92.71a5.575 5.575 0 0 0 2.921-.71 1.157 1.157 0 0 1 .572.893zm0 0c0 .91-1.568 1.662-3.491 1.662-1.924 0-3.489-.741-3.489-1.662a1.153 1.153 0 0 1 .568-.893c.89.5 1.9.745 2.92.71a5.575 5.575 0 0 0 2.921-.71 1.157 1.157 0 0 1 .572.893zm-.598-1.096a.113.113 0 0 0-.063 0 5.426 5.426 0 0 1-2.83.691 5.426 5.426 0 0 1-2.831-.691.103.103 0 0 0-.06 0c-.545-.698-4.531-5.758-5.455-7.246-.665-1.063-2.12-3.837-1.27-6.608.665-2.133 3.738-3.655 5.493-3.748a1.847 1.847 0 0 0 1.88-1.814c0-.7-.515-1.525-1.884-1.541-1.72-.02-1.88-1.37-1.947-1.954a23.08 23.08 0 0 0 6.074.79c2.05.01 4.092-.253 6.073-.783-.067.585-.223 1.933-1.944 1.953-1.372.017-1.873.84-1.883 1.542a1.845 1.845 0 0 0 1.877 1.814c1.744.086 4.84 1.614 5.495 3.74.847 2.765-.608 5.54-1.273 6.602-.93 1.495-4.9 6.555-5.452 7.26v-.007zm0 0a.113.113 0 0 0-.063 0 5.426 5.426 0 0 1-2.83.691 5.426 5.426 0 0 1-2.831-.691.103.103 0 0 0-.06 0c-.545-.698-4.531-5.758-5.455-7.246-.665-1.063-2.12-3.837-1.27-6.608.665-2.133 3.738-3.655 5.493-3.748a1.847 1.847 0 0 0 1.88-1.814c0-.7-.515-1.525-1.884-1.541-1.72-.02-1.88-1.37-1.947-1.954a23.08 23.08 0 0 0 6.074.79c2.05.01 4.092-.253 6.073-.783-.067.585-.223 1.933-1.944 1.953-1.372.017-1.873.84-1.883 1.542a1.845 1.845 0 0 0 1.877 1.814c1.744.086 4.84 1.614 5.495 3.74.847 2.765-.608 5.54-1.273 6.602-.93 1.495-4.9 6.555-5.452 7.26v-.007z" fill="#FBD48E"/>
</svg>
