<svg width="48" height="48" fill="none" xmlns="http://www.w3.org/2000/svg">
    <path d="M24 48c13.255 0 24-10.745 24-24S37.255 0 24 0 0 10.745 0 24s10.745 24 24 24z" fill="#F5B300"/>
    <path d="M17.489 11.736c.833.227 1.665.378 2.498.605.833.227 1.666.379 2.499.606.227.076.303 0 .378-.227.303-1.287.606-2.499.909-3.786.076-.227.151-.303.378-.227.758.227 1.439.379 2.196.53.227.076.227.151.151.303-.302 1.211-.605 2.498-.908 3.71 0 .075 0 .151-.076.303.606.15 1.287.302 1.893.454.076 0 .151-.152.227-.227a40.35 40.35 0 0 1 .757-2.877l.227-.909c0-.151.076-.227.227-.151.758.227 1.515.378 2.347.605.076 0 .076.076.152.076-.227.984-.454 1.893-.682 2.801-.075.379-.151.758-.302 1.136-.076.227 0 .303.227.379l2.498 1.135a6.423 6.423 0 0 1 1.969 1.817c.681 1.136.757 2.347.454 3.559-.227.832-.53 1.59-1.136 2.195-.454.454-1.06.757-1.665.984-.076 0-.152.076-.303.076.303.227.605.379.908.606.909.681 1.515 1.514 1.817 2.574.152.833.076 1.741-.151 2.574-.303 1.06-.681 1.969-1.363 2.801-.833.985-1.893 1.515-3.104 1.666-1.59.227-3.104.076-4.618-.151-.227-.076-.379 0-.454.227-.303 1.211-.606 2.498-.91 3.71-.075.302-.075.378-.453.227-.682-.152-1.439-.379-2.12-.53-.227-.076-.227-.152-.152-.303.303-1.287.606-2.574.985-3.786 0-.151.075-.227-.076-.302a71.127 71.127 0 0 0-1.893-.455c-.151.682-.378 1.363-.53 2.044-.151.682-.378 1.363-.53 2.044-.076.152-.076.228-.303.152-.757-.227-1.514-.379-2.27-.53-.228-.076-.228-.151-.152-.303.302-1.287.605-2.574.984-3.785 0-.076.076-.152.076-.303-1.742-.454-3.483-.909-5.3-1.363.151-.303.227-.53.379-.833.302-.681.605-1.363.832-1.968.076-.227.152-.227.379-.227.53.151 1.136.303 1.665.378.606.152 1.06-.151 1.136-.681.984-3.861 1.968-7.723 2.877-11.66.152-.605-.227-1.287-.909-1.514-.68-.227-1.362-.378-1.968-.53-.151 0-.227-.075-.151-.227.227-.833.454-1.741.681-2.574-.303.227-.303.227-.227.152zm3.861 18.7c.076 0 .151.076.151.076 1.212.302 2.499.68 3.786.757.909.075 1.741.075 2.574-.227 1.439-.455 2.044-2.348 1.212-3.559-.379-.606-.985-.984-1.59-1.363-1.363-.757-2.953-1.06-4.467-1.362-.227-.076-.227 0-.303.227-.152.757-.379 1.438-.53 2.195-.303 1.06-.53 2.12-.833 3.256zm6.36-7.723c.151 0 .53-.075.833-.151 1.438-.303 2.195-1.969 1.438-3.256-.379-.68-1.06-1.135-1.741-1.438-1.06-.454-2.12-.681-3.256-.984-.227-.076-.303 0-.378.227-.379 1.59-.758 3.104-1.212 4.694-.075.151 0 .227.152.303.303.075.53.151.832.227 1.136.151 2.12.378 3.332.378z" fill="#fff"/>
</svg>
