<svg width="120" height="120" fill="none" xmlns="http://www.w3.org/2000/svg">
    <path d="m62.529 12.216.381 1.53.57-1.47 3.78-9.751 1.238 10.384.186 1.566.75-1.387 4.973-9.2-.074 10.458-.011 1.577.917-1.283 6.087-8.504-1.384 10.366-.209 1.563 1.071-1.157 7.105-7.674-2.673 10.11-.403 1.525 1.208-1.014 8.01-6.723-3.918 9.696-.591 1.462 1.325-.854 8.79-5.667-5.103 9.129-.77 1.376 1.423-.681 9.43-4.52-6.207 8.416-.936 1.27 1.497-.498 9.923-3.303-7.213 7.573-1.088 1.142 1.547-.307 10.259-2.032-8.106 6.608-1.222.997 1.573-.11 10.433-.731-8.87 5.54-1.337.836 1.574.088 10.442.583-9.494 4.385-1.432.661 1.551.285 10.287 1.886-9.969 3.161-1.503.477 1.503.477 9.969 3.16-10.287 1.887-1.551.285 1.432.66 9.494 4.386-10.442.583-1.574.088 1.337.835 8.87 5.541-10.433-.73-1.573-.111 1.222.996 8.106 6.61-10.259-2.033-1.547-.307 1.088 1.142 7.213 7.573-9.923-3.303-1.496-.498.935 1.27 6.207 8.416-9.43-4.52-1.422-.681.77 1.376 5.102 9.129-8.79-5.667-1.325-.854.59 1.462 3.92 9.696-8.01-6.723-1.209-1.014.403 1.525 2.673 10.11-7.105-7.674-1.07-1.157.208 1.563 1.384 10.366-6.087-8.504-.917-1.283.01 1.577.075 10.458-4.973-9.2-.75-1.387-.186 1.566-1.237 10.384-3.78-9.75-.57-1.471-.382 1.53L60 117.932l-2.529-10.148-.381-1.53-.57 1.471-3.78 9.75-1.238-10.384-.186-1.566-.75 1.387-4.973 9.2.074-10.458.011-1.577-.917 1.283-6.087 8.504 1.384-10.366.209-1.563-1.071 1.157-7.105 7.674 2.673-10.11.403-1.525-1.208 1.014-8.01 6.723 3.918-9.696.591-1.462-1.325.854-8.79 5.667 5.103-9.129.77-1.376-1.423.681-9.43 4.52 6.207-8.417.936-1.269-1.497.498-9.923 3.303 7.213-7.573 1.088-1.142-1.547.307-10.259 2.032 8.106-6.608 1.222-.997-1.573.11-10.433.731 8.87-5.54 1.337-.836-1.574-.088-10.442-.583 9.494-4.385 1.432-.661-1.551-.285-10.287-1.886 9.97-3.161L13.653 60l-1.503-.477-9.969-3.16 10.287-1.887 1.55-.285-1.43-.66-9.495-4.386 10.442-.583 1.574-.088-1.337-.835-8.87-5.541 10.433.73 1.573.111-1.222-.996-8.106-6.61 10.26 2.033 1.546.307-1.088-1.142-7.213-7.573 9.923 3.303 1.497.498-.936-1.27-6.207-8.416 9.43 4.52 1.422.681-.77-1.376-5.102-9.129 8.79 5.667 1.325.854-.59-1.462-3.92-9.696 8.01 6.723 1.209 1.014-.403-1.524L32.09 9.233l7.105 7.674 1.07 1.157-.208-1.563-1.384-10.366 6.087 8.504.917 1.283-.01-1.577-.075-10.458 4.973 9.2.75 1.387.186-1.566L52.74 2.525l3.78 9.75.57 1.47.382-1.53L60 2.069l2.529 10.148z" fill="#EF3E25" stroke="#242424"/>
    <circle cx="59.739" cy="59.739" r="41.739" fill="#242424"/>
    <circle cx="59.522" cy="59.522" r="36.522" fill="#EF3E25"/>
    <path d="M65.236 78v-8.424h2.132l.364-4.368h-2.496V44.2h-7.228L50.78 65.624v3.952h9.516V78h4.94zm-9.412-12.792c1.664-5.512 3.172-10.66 4.628-16.224h.052c-.052 3.38-.208 6.812-.208 10.192v6.032h-4.472z" fill="#242424"/>
</svg>
