<svg width="138" height="48" fill="none" xmlns="http://www.w3.org/2000/svg">
    <g clip-path="url(#a)">
        <path d="M51.706 7.037h8.423c5.646 0 9.14 1.513 11.336 3.696 2.15 2.138 3.136 4.944 3.136 8.417a15.743 15.743 0 0 1-1.217 6.155 15.822 15.822 0 0 1-3.528 5.201c-3.494 3.474-8.467 5.3-15.189 5.3H43.91l7.796-28.77zm3.72 23.113a13.586 13.586 0 0 0 9.677-3.518 10.048 10.048 0 0 0 2.187-3.316 10 10 0 0 0 .726-3.9 6.26 6.26 0 0 0-1.703-4.587c-1.3-1.291-3.405-2.093-6.675-2.093h-3.092l-4.705 17.369h3.585v.045zM80.067 19.15H77.42l1.433-5.343h2.599l.269-1.203c1.3-4.897 4.346-7.08 8.961-7.08a13.522 13.522 0 0 1 4.302.623l-1.344 5.17a8.279 8.279 0 0 0-2.738-.535 2.939 2.939 0 0 0-2.012.611 2.906 2.906 0 0 0-1.08 1.794l-.182.624h5.332l-1.434 5.343h-5.2l-4.57 16.702h-6.26l4.57-16.705zM88.894 41.017l3.361-4.542c.704.515 1.547.81 2.42.846.486.01.966-.108 1.392-.343a2.74 2.74 0 0 0 1.028-.993l-2.737-22.22h6.407l1.03 14.965 8.337-14.968h6.766l-13.755 22.584c-2.913 4.497-5.377 6.19-9.14 6.19a7.835 7.835 0 0 1-5.109-1.519zM119.766 13.806h6.273l-.404 1.425c1.569-1.38 3.316-1.826 5.825-1.826 3.987 0 6.541 2.406 6.541 6.414a16.214 16.214 0 0 1-.762 4.186l-3.181 11.846h-6.272l3.271-12.113c.172-.64.262-1.299.269-1.96 0-1.782-1.12-2.721-3.046-2.721-2.464 0-4.077 1.781-4.795 4.409l-3.36 12.38h-6.273l5.914-22.04z" fill="#1D1D1B"/>
        <path d="m13.934 30.907.762-2.984c0-.09-.044-.181-.134-.181H.134c-.091 0-.134-.09-.134-.182L7.438.08c0-.044.09-.09.134-.09h8.02c5.42 0 8.826 1.469 10.932 3.562a10.944 10.944 0 0 1 2.363 3.741c.523 1.394.756 2.879.684 4.365a14.982 14.982 0 0 1-.807 4.897 13.746 13.746 0 0 1-1.926 3.786c-.045.09 0 .223.091.223h10.665a.126.126 0 0 1 .13.077.124.124 0 0 1-.039.146L9.763 47.965a.137.137 0 0 1-.219-.048.134.134 0 0 1-.005-.086l4.395-16.924z" fill="url(#b)"/>
    </g>
    <defs>
        <radialGradient id="b" cx="0" cy="0" r="1" gradientUnits="userSpaceOnUse" gradientTransform="matrix(38.8808 0 0 38.6505 13.644 31.34)">
            <stop stop-color="#41BEF0"/>
            <stop offset=".469" stop-color="#828CBE"/>
            <stop offset=".54" stop-color="#8F80AE"/>
            <stop offset=".794" stop-color="#BC5A79"/>
            <stop offset=".917" stop-color="#CD4B64"/>
        </radialGradient>
        <clipPath id="a">
            <path fill="#fff" d="M0 0h138v48H0z"/>
        </clipPath>
    </defs>
</svg>
