<svg width="24" height="24" fill="none" xmlns="http://www.w3.org/2000/svg">
    <circle cx="12" cy="12" r="12" fill="#FBD48E"/>
    <path d="M16.52 8.249C15.048 6.964 13.64 7 13.64 7l-.144.192c1.748.613 2.56 1.513 2.56 1.513-2.5-1.608-5.686-1.596-8.287 0 0 0 .843-.949 2.694-1.56L10.36 7S8.96 6.964 7.48 8.25c0 0-1.48 3.109-1.48 6.938 0 0 .864 1.729 3.136 1.813 0 0 .38-.528.69-.984-1.307-.456-1.8-1.405-1.8-1.405.82.6 1.65.975 2.684 1.213 1.682.404 3.774-.012 5.336-1.213 0 0-.514.973-1.86 1.417.308.444.678.96.678.96 2.272-.084 3.136-1.813 3.136-1.8 0-3.83-1.48-6.94-1.48-6.94zm-6.438 5.822c-.576 0-1.049-.588-1.049-1.32.042-1.754 2.067-1.749 2.098 0 0 .732-.463 1.32-1.049 1.32zm3.753 0c-.575 0-1.048-.588-1.048-1.32.046-1.75 2.045-1.752 2.097 0 0 .732-.462 1.32-1.049 1.32z" fill="#4D526C"/>
</svg>
