<svg width="24" height="24" fill="none" xmlns="http://www.w3.org/2000/svg">
    <circle cx="12" cy="12" r="12" fill="#FBD48E"/>
    <path d="M11.302 15.334c.218 0 .415.173.415.411a.413.413 0 0 1-.415.411.413.413 0 0 1-.416-.41c0-.239.197-.412.416-.412zm6.43-2.51a.413.413 0 0 1-.416-.41c0-.217.175-.411.416-.411.218 0 .415.173.415.41a.428.428 0 0 1-.415.412zm0-1.665c-.7 0-1.269.563-1.269 1.255 0 .13.022.26.066.39L12.35 15.01a1.271 1.271 0 0 0-1.05-.541c-.48 0-.918.281-1.137.692l-3.761-1.947c-.394-.216-.7-.844-.657-1.45.022-.302.132-.54.285-.627.11-.065.219-.043.372.022l.021.022c1.006.519 4.265 2.206 4.396 2.271.22.087.329.13.7-.043l6.736-3.461c.11-.044.22-.13.22-.282 0-.194-.198-.281-.198-.281-.393-.173-.984-.454-1.552-.714C15.5 8.11 14.1 7.46 13.489 7.135a1.039 1.039 0 0 0-1.028 0l-.153.065c-2.778 1.385-6.452 3.18-6.67 3.31-.373.216-.613.67-.635 1.233-.044.887.415 1.817 1.072 2.142l3.98 2.033A1.283 1.283 0 0 0 11.302 17c.7 0 1.246-.54 1.268-1.233l4.374-2.336c.219.173.503.26.788.26a1.267 1.267 0 1 0 0-2.531z" fill="#4D526C"/>
</svg>
