<svg width="64" height="64" fill="none" xmlns="http://www.w3.org/2000/svg">
    <path d="M63.75 32c0 17.535-14.215 31.75-31.75 31.75S.25 49.535.25 32 14.465.25 32 .25 63.75 14.465 63.75 32z" fill="#4D526C" stroke="#242424" stroke-width=".5"/>
    <path d="M32 60.694c15.847 0 28.694-12.847 28.694-28.694C60.694 16.152 47.847 3.306 32 3.306 16.152 3.306 3.306 16.152 3.306 32c0 15.847 12.846 28.694 28.694 28.694zM63.75 32c0 17.535-14.215 31.75-31.75 31.75S.25 49.535.25 32 14.465.25 32 .25 63.75 14.465 63.75 32z" fill="#FBD48E" stroke="#242424" stroke-width=".5"/>
    <path d="M45.117 27.097c-.908-2.955-5.16-5.08-7.575-5.192a2.189 2.189 0 0 1-2.241-2.14c0-.81.607-1.771 2.237-1.771 2.547-.044 2.76-2.095 2.866-2.866v-.155a.11.11 0 0 0 0-.067l.057-.141h-16.86l.032.141a.158.158 0 0 0 0 .067v.155c.084.77.319 2.822 2.861 2.853 1.63 0 2.215.974 2.242 1.772a2.215 2.215 0 0 1-2.246 2.14c-2.414.11-6.645 2.236-7.57 5.19-1.135 3.806.845 7.59 1.754 9.042 1.204 1.931 6.05 8.12 7.22 9.622a1.772 1.772 0 0 0-.788 1.355c0 1.387 2.166 2.476 4.926 2.476 2.76 0 4.93-1.08 4.93-2.476a1.77 1.77 0 0 0-.802-1.364c1.183-1.493 6.025-7.681 7.238-9.613.886-1.453 2.884-5.236 1.72-9.028zM39.292 15.04a30.878 30.878 0 0 1-7.26.833 30.906 30.906 0 0 1-7.239-.833h14.499zm-2.605 32.063c0 1.214-2.09 2.215-4.655 2.215-2.565 0-4.652-.988-4.652-2.215a1.537 1.537 0 0 1 .758-1.191 7.442 7.442 0 0 0 3.894.947 7.433 7.433 0 0 0 3.893-.947 1.546 1.546 0 0 1 .762 1.191zm0 0c0 1.214-2.09 2.215-4.655 2.215-2.565 0-4.652-.988-4.652-2.215a1.537 1.537 0 0 1 .758-1.191 7.442 7.442 0 0 0 3.894.947 7.433 7.433 0 0 0 3.893-.947 1.546 1.546 0 0 1 .762 1.191zm-.797-1.462a.15.15 0 0 0-.084 0 7.233 7.233 0 0 1-3.774.922 7.233 7.233 0 0 1-3.775-.922.139.139 0 0 0-.08 0c-.726-.93-6.042-7.676-7.273-9.661-.886-1.418-2.826-5.116-1.692-8.81.886-2.845 4.983-4.874 7.322-4.998a2.464 2.464 0 0 0 2.508-2.418c0-.935-.687-2.034-2.512-2.056-2.295-.026-2.508-1.825-2.596-2.604 2.64.709 5.363 1.064 8.098 1.054a30.745 30.745 0 0 0 8.097-1.046c-.088.78-.296 2.579-2.591 2.605-1.83.022-2.499 1.12-2.512 2.056a2.458 2.458 0 0 0 2.503 2.418c2.326.115 6.454 2.153 7.327 4.988 1.13 3.686-.81 7.385-1.697 8.802-1.24 1.994-6.534 8.74-7.27 9.68v-.01zm0 0a.15.15 0 0 0-.084 0 7.233 7.233 0 0 1-3.774.922 7.233 7.233 0 0 1-3.775-.922.139.139 0 0 0-.08 0c-.726-.93-6.042-7.676-7.273-9.661-.886-1.418-2.826-5.116-1.692-8.81.886-2.845 4.983-4.874 7.322-4.998a2.464 2.464 0 0 0 2.508-2.418c0-.935-.687-2.034-2.512-2.056-2.295-.026-2.508-1.825-2.596-2.604 2.64.709 5.363 1.064 8.098 1.054a30.745 30.745 0 0 0 8.097-1.046c-.088.78-.296 2.579-2.591 2.605-1.83.022-2.499 1.12-2.512 2.056a2.458 2.458 0 0 0 2.503 2.418c2.326.115 6.454 2.153 7.327 4.988 1.13 3.686-.81 7.385-1.697 8.802-1.24 1.994-6.534 8.74-7.27 9.68v-.01z" fill="#FBD48E"/>
</svg>
