<svg width="72" height="48" fill="none" xmlns="http://www.w3.org/2000/svg">
    <path d="M24 48c13.255 0 24-10.745 24-24S37.255 0 24 0 0 10.745 0 24s10.745 24 24 24z" fill="#8247E5"/>
    <path d="M31.942 18.866c-.575-.335-1.324-.335-1.957 0l-4.49 2.567-3.05 1.675-4.49 2.567c-.576.335-1.325.335-1.958 0l-3.569-2.01c-.576-.334-.979-.948-.979-1.618v-3.963c0-.67.346-1.283.979-1.618l3.511-1.954c.576-.335 1.324-.335 1.958 0l3.511 1.954c.576.335.979.949.979 1.618v2.568l3.05-1.73v-2.568c0-.67-.345-1.284-.978-1.618l-6.505-3.684c-.576-.335-1.324-.335-1.957 0l-6.62 3.684a1.801 1.801 0 0 0-.979 1.618v7.424c0 .67.346 1.283.98 1.618l6.619 3.684c.576.335 1.324.335 1.957 0l4.49-2.512 3.051-1.73 4.49-2.512c.576-.335 1.324-.335 1.957 0l3.512 1.954c.575.335.978.949.978 1.618v3.963c0 .67-.345 1.284-.978 1.619l-3.512 2.01c-.575.334-1.324.334-1.957 0l-3.511-1.954c-.576-.335-.979-.95-.979-1.619V27.35l-3.05 1.73v2.567c0 .67.345 1.284.978 1.619l6.62 3.684c.575.334 1.324.334 1.957 0l6.62-3.684c.576-.335.978-.949.978-1.619v-7.423c0-.67-.345-1.284-.978-1.619l-6.678-3.74z" fill="#fff"/>
    <circle cx="48" cy="24.001" r="22.047" fill="#4D526C"/>
    <path d="M48.002.278C34.92.278 24.282 10.918 24.282 24c0 13.082 10.638 23.721 23.72 23.721 13.082 0 23.721-10.639 23.721-23.72 0-13.083-10.639-23.722-23.72-23.722zm0 45.835c-12.214 0-22.114-9.9-22.114-22.114s9.9-22.114 22.114-22.114S70.116 11.785 70.116 24s-9.9 22.114-22.114 22.114z" fill="#FBD48E"/>
    <path fill-rule="evenodd" clip-rule="evenodd" d="M24 24C24 10.764 34.764 0 48 0s24 10.764 24 24-10.764 24-24 24-24-10.764-24-24zm2.165 0c0 12.06 9.775 21.835 21.835 21.835S69.835 36.06 69.835 24 60.06 2.165 48 2.165 26.165 11.94 26.165 24zm-1.886 0C24.28 10.918 34.92.28 48 .28 61.082.28 71.72 10.917 71.72 24c0 13.082-10.638 23.72-23.72 23.72-13.082 0-23.72-10.638-23.72-23.72zm1.607 0c0 12.214 9.9 22.114 22.114 22.114S70.114 36.214 70.114 24 60.214 1.886 48 1.886 25.886 11.786 25.886 24z" fill="#242424"/>
    <path fill-rule="evenodd" clip-rule="evenodd" d="M52.048 22.046v3.303h8.067v2.7h-8.067v8.068h-2.7V28.05H46.68v8.068h-2.7V28.05h-8.068v-2.7h8.132v-3.303H35.72v-3.07h8.325v-3.012c0-1.06.322-1.929.997-2.668.096-.096.128-.16.128-.16.225-.225.482-.45.804-.643l.353-.193a3.787 3.787 0 0 1 1.704-.386c.74 0 1.414.193 2.025.546.61.354 1.093.836 1.446 1.447.354.61.547 1.286.547 2.025v3.044h8.229v3.07h-8.23zm-2.7 0v3.303h-2.7v-3.303h2.7zm0-3.07v-3.012c0-.386-.129-.707-.386-.964-.29-.257-.579-.386-.964-.386-.354 0-.675.129-.932.386-.258.225-.386.546-.418.932v3.044h2.7z" fill="#FBD48E"/>
    <path fill-rule="evenodd" clip-rule="evenodd" d="M51.769 25.629v-3.862h8.229v-2.512h-8.23v-3.323c0-.689-.178-1.316-.508-1.885a3.624 3.624 0 0 0-1.345-1.345 3.703 3.703 0 0 0-1.885-.509c-.57 0-1.103.12-1.574.354l-.344.188c-.282.17-.513.368-.721.574a1 1 0 0 1-.148.18c-.622.683-.92 1.48-.92 2.475v3.291h-8.325v2.512h8.325v3.862h-8.132v2.141h8.068v8.068h2.142V27.77h3.226v8.068h2.142V27.77h8.067V25.63H51.77zm8.346-.28v2.7h-8.067v8.068h-2.7V28.05H46.68v8.068h-2.7V28.05h-8.068v-2.7h8.132v-3.303H35.72v-3.07h8.325v-3.012c0-1.06.322-1.929.997-2.668.096-.096.128-.16.128-.16.225-.225.482-.45.804-.643l.353-.193a3.787 3.787 0 0 1 1.704-.386c.74 0 1.414.193 2.025.546.61.354 1.093.836 1.446 1.447.354.61.547 1.286.547 2.025v3.044h8.229v3.07h-8.23v3.303h8.068zm-10.488-3.582v3.862h-3.258v-3.862h3.258zm0-2.512h-3.258V15.91c.037-.43.183-.827.506-1.113.31-.306.7-.461 1.123-.461.464 0 .817.16 1.15.456l.006.006.005.005c.313.313.468.707.468 1.162v3.291zM47.066 15c-.258.225-.386.546-.418.932v3.044h2.7v-3.012c0-.386-.129-.707-.386-.964-.29-.257-.579-.386-.964-.386-.354 0-.675.129-.932.386zm-.418 7.046h2.7v3.303h-2.7v-3.303z" fill="#242424"/>
</svg>
