<svg width="642" height="200" fill="none" xmlns="http://www.w3.org/2000/svg">
    <path d="M321 199.412c54.887 0 99.382-44.511 99.382-99.418C420.382 45.087 375.887.576 321 .576c-54.888 0-99.383 44.511-99.383 99.418 0 54.907 44.495 99.418 99.383 99.418z" fill="#EF3E25" stroke="#242424" stroke-width="1.01" stroke-miterlimit="10"/>
    <path d="M320.999 193.593c51.675 0 93.566-41.905 93.566-93.599 0-51.693-41.891-93.599-93.566-93.599-51.675 0-93.565 41.906-93.565 93.6 0 51.693 41.89 93.598 93.565 93.598z" fill="#EF3E25" stroke="#242424" stroke-width="1.01" stroke-miterlimit="10"/>
    <path d="M320.999 193.593c51.675 0 93.566-41.905 93.566-93.599 0-51.693-41.891-93.599-93.566-93.599-51.675 0-93.565 41.906-93.565 93.6 0 51.693 41.89 93.598 93.565 93.598z" fill="#EF3E25" stroke="#242424" stroke-width="1.01" stroke-miterlimit="10"/>
    <path d="M320.998 187.786c48.469 0 87.761-39.306 87.761-87.792 0-48.486-39.292-87.791-87.761-87.791-48.468 0-87.76 39.305-87.76 87.791s39.292 87.792 87.76 87.792z" fill="#EF3E25" stroke="#242424" stroke-width="1.01" stroke-miterlimit="10"/>
    <path d="M320.998 187.786c48.469 0 87.761-39.306 87.761-87.792 0-48.486-39.292-87.791-87.761-87.791-48.468 0-87.76 39.305-87.76 87.791s39.292 87.792 87.76 87.792z" fill="#EF3E25" stroke="#242424" stroke-width="1.01" stroke-miterlimit="10"/>
    <path d="M320.998 181.967c45.256 0 81.943-36.701 81.943-81.973s-36.687-81.972-81.943-81.972-81.943 36.7-81.943 81.972c0 45.272 36.687 81.973 81.943 81.973z" fill="#EF3E25" stroke="#242424" stroke-width="1.01" stroke-miterlimit="10"/>
    <path d="M320.998 181.967c45.256 0 81.943-36.701 81.943-81.973s-36.687-81.972-81.943-81.972-81.943 36.7-81.943 81.972c0 45.272 36.687 81.973 81.943 81.973z" fill="#EF3E25" stroke="#242424" stroke-width="1.01" stroke-miterlimit="10"/>
    <path d="M321.001 176.16c42.05 0 76.138-34.101 76.138-76.166S363.051 23.83 321.001 23.83c-42.05 0-76.138 34.1-76.138 76.165 0 42.065 34.088 76.166 76.138 76.166z" fill="#EF3E25" stroke="#242424" stroke-width="1.01" stroke-miterlimit="10"/>
    <path d="M321.001 176.16c42.05 0 76.138-34.101 76.138-76.166S363.051 23.83 321.001 23.83c-42.05 0-76.138 34.1-76.138 76.165 0 42.065 34.088 76.166 76.138 76.166z" fill="#EF3E25" stroke="#242424" stroke-width="1.01" stroke-miterlimit="10"/>
    <path d="M321.001 170.34c38.837 0 70.321-31.495 70.321-70.346s-31.484-70.346-70.321-70.346c-38.838 0-70.321 31.495-70.321 70.346s31.483 70.346 70.321 70.346z" fill="#EF3E25" stroke="#242424" stroke-width="1.01" stroke-miterlimit="10"/>
    <path d="M321.001 170.34c38.837 0 70.321-31.495 70.321-70.346s-31.484-70.346-70.321-70.346c-38.838 0-70.321 31.495-70.321 70.346s31.483 70.346 70.321 70.346z" fill="#EF3E25" stroke="#242424" stroke-width="1.01" stroke-miterlimit="10"/>
    <path d="M321 164.533c35.631 0 64.516-28.895 64.516-64.539 0-35.643-28.885-64.538-64.516-64.538s-64.516 28.895-64.516 64.538c0 35.644 28.885 64.539 64.516 64.539z" fill="#EF3E25" stroke="#242424" stroke-width="1.01" stroke-miterlimit="10"/>
    <path d="M321 164.533c35.631 0 64.516-28.895 64.516-64.539 0-35.643-28.885-64.538-64.516-64.538s-64.516 28.895-64.516 64.538c0 35.644 28.885 64.539 64.516 64.539z" fill="#EF3E25" stroke="#242424" stroke-width="1.01" stroke-miterlimit="10"/>
    <path d="M320.999 158.714c32.419 0 58.699-26.29 58.699-58.72s-26.28-58.72-58.699-58.72c-32.418 0-58.698 26.29-58.698 58.72s26.28 58.72 58.698 58.72z" fill="#EF3E25" stroke="#242424" stroke-width="1.01" stroke-miterlimit="10"/>
    <path d="M320.999 158.714c32.419 0 58.699-26.29 58.699-58.72s-26.28-58.72-58.699-58.72c-32.418 0-58.698 26.29-58.698 58.72s26.28 58.72 58.698 58.72z" fill="#EF3E25" stroke="#242424" stroke-width="1.01" stroke-miterlimit="10"/>
    <path d="M320.999 152.895c29.206 0 52.882-23.685 52.882-52.9 0-29.217-23.676-52.902-52.882-52.902s-52.882 23.685-52.882 52.901c0 29.216 23.676 52.901 52.882 52.901z" fill="#EF3E25" stroke="#242424" stroke-width="1.01" stroke-miterlimit="10"/>
    <path d="M320.999 152.895c29.206 0 52.882-23.685 52.882-52.9 0-29.217-23.676-52.902-52.882-52.902s-52.882 23.685-52.882 52.901c0 29.216 23.676 52.901 52.882 52.901z" fill="#EF3E25" stroke="#242424" stroke-width="1.01" stroke-miterlimit="10"/>
    <path d="M320.998 147.088c26 0 47.077-21.085 47.077-47.094s-21.077-47.093-47.077-47.093c-25.999 0-47.076 21.084-47.076 47.093 0 26.009 21.077 47.094 47.076 47.094z" fill="#EF3E25" stroke="#242424" stroke-width="1.01" stroke-miterlimit="10"/>
    <path d="M320.998 147.088c26 0 47.077-21.085 47.077-47.094s-21.077-47.093-47.077-47.093c-25.999 0-47.076 21.084-47.076 47.093 0 26.009 21.077 47.094 47.076 47.094z" fill="#EF3E25" stroke="#242424" stroke-width="1.01" stroke-miterlimit="10"/>
    <path d="M321.002 141.269c22.787 0 41.259-18.48 41.259-41.275 0-22.795-18.472-41.274-41.259-41.274s-41.26 18.479-41.26 41.274 18.473 41.275 41.26 41.275z" fill="#EF3E25" stroke="#242424" stroke-width="1.01" stroke-miterlimit="10"/>
    <path d="M321.002 141.269c22.787 0 41.259-18.48 41.259-41.275 0-22.795-18.472-41.274-41.259-41.274s-41.26 18.479-41.26 41.274 18.473 41.275 41.26 41.275z" fill="#EF3E25" stroke="#242424" stroke-width="1.01" stroke-miterlimit="10"/>
    <path d="M321.001 135.461c19.581 0 35.454-15.879 35.454-35.467s-15.873-35.467-35.454-35.467c-19.581 0-35.454 15.88-35.454 35.467 0 19.588 15.873 35.467 35.454 35.467z" fill="#EF3E25" stroke="#242424" stroke-width="1.01" stroke-miterlimit="10"/>
    <path d="M321.001 135.461c19.581 0 35.454-15.879 35.454-35.467s-15.873-35.467-35.454-35.467c-19.581 0-35.454 15.88-35.454 35.467 0 19.588 15.873 35.467 35.454 35.467z" fill="#EF3E25" stroke="#242424" stroke-width="1.01" stroke-miterlimit="10"/>
    <path d="M321.001 129.642c16.368 0 29.637-13.274 29.637-29.648 0-16.374-13.269-29.648-29.637-29.648-16.369 0-29.638 13.274-29.638 29.648 0 16.374 13.269 29.648 29.638 29.648z" fill="#EF3E25" stroke="#242424" stroke-width="1.01" stroke-miterlimit="10"/>
    <path d="M321.001 129.642c16.368 0 29.637-13.274 29.637-29.648 0-16.374-13.269-29.648-29.637-29.648-16.369 0-29.638 13.274-29.638 29.648 0 16.374 13.269 29.648 29.638 29.648z" fill="#EF3E25" stroke="#242424" stroke-width="1.01" stroke-miterlimit="10"/>
    <path d="M321 123.835c13.162 0 23.832-10.674 23.832-23.84 0-13.167-10.67-23.841-23.832-23.841s-23.832 10.674-23.832 23.84c0 13.167 10.67 23.841 23.832 23.841z" fill="#EF3E25" stroke="#242424" stroke-width="1.01" stroke-miterlimit="10"/>
    <path d="M321 123.835c13.162 0 23.832-10.674 23.832-23.84 0-13.167-10.67-23.841-23.832-23.841s-23.832 10.674-23.832 23.84c0 13.167 10.67 23.841 23.832 23.841z" fill="#EF3E25" stroke="#242424" stroke-width="1.01" stroke-miterlimit="10"/>
    <path d="M320.999 118.016c9.95 0 18.016-8.069 18.016-18.022 0-9.953-8.066-18.021-18.016-18.021-9.949 0-18.015 8.068-18.015 18.021 0 9.953 8.066 18.022 18.015 18.022z" fill="#EF3E25" stroke="#242424" stroke-width="1.01" stroke-miterlimit="10"/>
    <path d="M320.999 118.016c9.95 0 18.016-8.069 18.016-18.022 0-9.953-8.066-18.021-18.016-18.021-9.949 0-18.015 8.068-18.015 18.021 0 9.953 8.066 18.022 18.015 18.022z" fill="#EF3E25" stroke="#242424" stroke-width="1.01" stroke-miterlimit="10"/>
    <path d="M320.999 112.208c6.743 0 12.209-5.468 12.209-12.214 0-6.745-5.466-12.214-12.209-12.214-6.743 0-12.21 5.469-12.21 12.214 0 6.746 5.467 12.214 12.21 12.214z" fill="#EF3E25" stroke="#242424" stroke-width="1.01" stroke-miterlimit="10"/>
    <path d="M320.999 112.208c6.743 0 12.209-5.468 12.209-12.214 0-6.745-5.466-12.214-12.209-12.214-6.743 0-12.21 5.469-12.21 12.214 0 6.746 5.467 12.214 12.21 12.214z" fill="#EF3E25" stroke="#242424" stroke-width="1.01" stroke-miterlimit="10"/>
    <path d="M320.998 106.389a6.394 6.394 0 0 0 6.393-6.395 6.394 6.394 0 1 0-12.786 0 6.394 6.394 0 0 0 6.393 6.395zM211.25 199.412c54.887 0 99.382-44.511 99.382-99.418 0-54.907-44.495-99.418-99.382-99.418-54.888 0-99.383 44.511-99.383 99.418 0 54.907 44.495 99.418 99.383 99.418z" fill="#EF3E25" stroke="#242424" stroke-width="1.01" stroke-miterlimit="10"/>
    <path d="M211.253 193.593c51.675 0 93.565-41.905 93.565-93.599 0-51.693-41.89-93.599-93.565-93.599s-93.565 41.906-93.565 93.6c0 51.693 41.89 93.598 93.565 93.598z" fill="#EF3E25" stroke="#242424" stroke-width="1.01" stroke-miterlimit="10"/>
    <path d="M211.253 193.593c51.675 0 93.565-41.905 93.565-93.599 0-51.693-41.89-93.599-93.565-93.599s-93.565 41.906-93.565 93.6c0 51.693 41.89 93.598 93.565 93.598z" fill="#EF3E25" stroke="#242424" stroke-width="1.01" stroke-miterlimit="10"/>
    <path d="M211.252 187.786c48.469 0 87.76-39.306 87.76-87.792 0-48.486-39.291-87.791-87.76-87.791-48.468 0-87.76 39.305-87.76 87.791s39.292 87.792 87.76 87.792z" fill="#EF3E25" stroke="#242424" stroke-width="1.01" stroke-miterlimit="10"/>
    <path d="M211.252 187.786c48.469 0 87.76-39.306 87.76-87.792 0-48.486-39.291-87.791-87.76-87.791-48.468 0-87.76 39.305-87.76 87.791s39.292 87.792 87.76 87.792z" fill="#EF3E25" stroke="#242424" stroke-width="1.01" stroke-miterlimit="10"/>
    <path d="M211.252 181.967c45.256 0 81.943-36.701 81.943-81.973s-36.687-81.972-81.943-81.972-81.943 36.7-81.943 81.972c0 45.272 36.687 81.973 81.943 81.973z" fill="#EF3E25" stroke="#242424" stroke-width="1.01" stroke-miterlimit="10"/>
    <path d="M211.252 181.967c45.256 0 81.943-36.701 81.943-81.973s-36.687-81.972-81.943-81.972-81.943 36.7-81.943 81.972c0 45.272 36.687 81.973 81.943 81.973z" fill="#EF3E25" stroke="#242424" stroke-width="1.01" stroke-miterlimit="10"/>
    <path d="M211.251 176.16c42.05 0 76.138-34.101 76.138-76.166S253.301 23.83 211.251 23.83c-42.05 0-76.138 34.1-76.138 76.165 0 42.065 34.088 76.166 76.138 76.166z" fill="#EF3E25" stroke="#242424" stroke-width="1.01" stroke-miterlimit="10"/>
    <path d="M211.251 176.16c42.05 0 76.138-34.101 76.138-76.166S253.301 23.83 211.251 23.83c-42.05 0-76.138 34.1-76.138 76.165 0 42.065 34.088 76.166 76.138 76.166z" fill="#EF3E25" stroke="#242424" stroke-width="1.01" stroke-miterlimit="10"/>
    <path d="M211.251 170.34c38.837 0 70.321-31.495 70.321-70.346s-31.484-70.346-70.321-70.346c-38.838 0-70.321 31.495-70.321 70.346s31.483 70.346 70.321 70.346z" fill="#EF3E25" stroke="#242424" stroke-width="1.01" stroke-miterlimit="10"/>
    <path d="M211.251 170.34c38.837 0 70.321-31.495 70.321-70.346s-31.484-70.346-70.321-70.346c-38.838 0-70.321 31.495-70.321 70.346s31.483 70.346 70.321 70.346z" fill="#EF3E25" stroke="#242424" stroke-width="1.01" stroke-miterlimit="10"/>
    <path d="M211.25 164.533c35.631 0 64.516-28.895 64.516-64.539 0-35.643-28.885-64.538-64.516-64.538s-64.516 28.895-64.516 64.538c0 35.644 28.885 64.539 64.516 64.539z" fill="#EF3E25" stroke="#242424" stroke-width="1.01" stroke-miterlimit="10"/>
    <path d="M211.25 164.533c35.631 0 64.516-28.895 64.516-64.539 0-35.643-28.885-64.538-64.516-64.538s-64.516 28.895-64.516 64.538c0 35.644 28.885 64.539 64.516 64.539z" fill="#EF3E25" stroke="#242424" stroke-width="1.01" stroke-miterlimit="10"/>
    <path d="M211.249 158.714c32.419 0 58.699-26.29 58.699-58.72s-26.28-58.72-58.699-58.72c-32.418 0-58.698 26.29-58.698 58.72s26.28 58.72 58.698 58.72z" fill="#EF3E25" stroke="#242424" stroke-width="1.01" stroke-miterlimit="10"/>
    <path d="M211.249 158.714c32.419 0 58.699-26.29 58.699-58.72s-26.28-58.72-58.699-58.72c-32.418 0-58.698 26.29-58.698 58.72s26.28 58.72 58.698 58.72z" fill="#EF3E25" stroke="#242424" stroke-width="1.01" stroke-miterlimit="10"/>
    <path d="M211.249 152.895c29.206 0 52.882-23.685 52.882-52.9 0-29.217-23.676-52.902-52.882-52.902s-52.882 23.685-52.882 52.901c0 29.216 23.676 52.901 52.882 52.901z" fill="#EF3E25" stroke="#242424" stroke-width="1.01" stroke-miterlimit="10"/>
    <path d="M211.249 152.895c29.206 0 52.882-23.685 52.882-52.9 0-29.217-23.676-52.902-52.882-52.902s-52.882 23.685-52.882 52.901c0 29.216 23.676 52.901 52.882 52.901z" fill="#EF3E25" stroke="#242424" stroke-width="1.01" stroke-miterlimit="10"/>
    <path d="M211.252 147.088c26 0 47.077-21.085 47.077-47.094s-21.077-47.093-47.077-47.093c-25.999 0-47.076 21.084-47.076 47.093 0 26.009 21.077 47.094 47.076 47.094z" fill="#EF3E25" stroke="#242424" stroke-width="1.01" stroke-miterlimit="10"/>
    <path d="M211.252 147.088c26 0 47.077-21.085 47.077-47.094s-21.077-47.093-47.077-47.093c-25.999 0-47.076 21.084-47.076 47.093 0 26.009 21.077 47.094 47.076 47.094z" fill="#EF3E25" stroke="#242424" stroke-width="1.01" stroke-miterlimit="10"/>
    <path d="M211.252 141.269c22.787 0 41.259-18.48 41.259-41.275 0-22.795-18.472-41.274-41.259-41.274s-41.26 18.479-41.26 41.274 18.473 41.275 41.26 41.275z" fill="#EF3E25" stroke="#242424" stroke-width="1.01" stroke-miterlimit="10"/>
    <path d="M211.252 141.269c22.787 0 41.259-18.48 41.259-41.275 0-22.795-18.472-41.274-41.259-41.274s-41.26 18.479-41.26 41.274 18.473 41.275 41.26 41.275z" fill="#EF3E25" stroke="#242424" stroke-width="1.01" stroke-miterlimit="10"/>
    <path d="M211.251 135.461c19.581 0 35.454-15.879 35.454-35.467s-15.873-35.467-35.454-35.467c-19.581 0-35.454 15.88-35.454 35.467 0 19.588 15.873 35.467 35.454 35.467z" fill="#EF3E25" stroke="#242424" stroke-width="1.01" stroke-miterlimit="10"/>
    <path d="M211.251 135.461c19.581 0 35.454-15.879 35.454-35.467s-15.873-35.467-35.454-35.467c-19.581 0-35.454 15.88-35.454 35.467 0 19.588 15.873 35.467 35.454 35.467z" fill="#EF3E25" stroke="#242424" stroke-width="1.01" stroke-miterlimit="10"/>
    <path d="M211.251 129.642c16.368 0 29.637-13.274 29.637-29.648 0-16.374-13.269-29.648-29.637-29.648-16.369 0-29.638 13.274-29.638 29.648 0 16.374 13.269 29.648 29.638 29.648z" fill="#EF3E25" stroke="#242424" stroke-width="1.01" stroke-miterlimit="10"/>
    <path d="M211.251 129.642c16.368 0 29.637-13.274 29.637-29.648 0-16.374-13.269-29.648-29.637-29.648-16.369 0-29.638 13.274-29.638 29.648 0 16.374 13.269 29.648 29.638 29.648z" fill="#EF3E25" stroke="#242424" stroke-width="1.01" stroke-miterlimit="10"/>
    <path d="M211.25 123.835c13.162 0 23.832-10.674 23.832-23.84 0-13.167-10.67-23.841-23.832-23.841s-23.832 10.674-23.832 23.84c0 13.167 10.67 23.841 23.832 23.841z" fill="#EF3E25" stroke="#242424" stroke-width="1.01" stroke-miterlimit="10"/>
    <path d="M211.25 123.835c13.162 0 23.832-10.674 23.832-23.84 0-13.167-10.67-23.841-23.832-23.841s-23.832 10.674-23.832 23.84c0 13.167 10.67 23.841 23.832 23.841z" fill="#EF3E25" stroke="#242424" stroke-width="1.01" stroke-miterlimit="10"/>
    <path d="M211.249 118.016c9.95 0 18.016-8.069 18.016-18.022 0-9.953-8.066-18.021-18.016-18.021-9.949 0-18.015 8.068-18.015 18.021 0 9.953 8.066 18.022 18.015 18.022z" fill="#EF3E25" stroke="#242424" stroke-width="1.01" stroke-miterlimit="10"/>
    <path d="M211.249 118.016c9.95 0 18.016-8.069 18.016-18.022 0-9.953-8.066-18.021-18.016-18.021-9.949 0-18.015 8.068-18.015 18.021 0 9.953 8.066 18.022 18.015 18.022z" fill="#EF3E25" stroke="#242424" stroke-width="1.01" stroke-miterlimit="10"/>
    <path d="M211.253 112.208c6.743 0 12.209-5.468 12.209-12.214 0-6.745-5.466-12.214-12.209-12.214-6.744 0-12.21 5.469-12.21 12.214 0 6.746 5.466 12.214 12.21 12.214z" fill="#EF3E25" stroke="#242424" stroke-width="1.01" stroke-miterlimit="10"/>
    <path d="M211.253 112.208c6.743 0 12.209-5.468 12.209-12.214 0-6.745-5.466-12.214-12.209-12.214-6.744 0-12.21 5.469-12.21 12.214 0 6.746 5.466 12.214 12.21 12.214z" fill="#EF3E25" stroke="#242424" stroke-width="1.01" stroke-miterlimit="10"/>
    <path d="M211.252 106.389a6.394 6.394 0 0 0 6.393-6.395 6.394 6.394 0 1 0-12.786 0 6.394 6.394 0 0 0 6.393 6.395zM430.75 199.412c54.887 0 99.382-44.511 99.382-99.418 0-54.907-44.495-99.418-99.382-99.418-54.888 0-99.383 44.511-99.383 99.418 0 54.907 44.495 99.418 99.383 99.418z" fill="#EF3E25" stroke="#242424" stroke-width="1.01" stroke-miterlimit="10"/>
    <path d="M430.749 193.593c51.675 0 93.566-41.905 93.566-93.599 0-51.693-41.891-93.599-93.566-93.599-51.675 0-93.565 41.906-93.565 93.6 0 51.693 41.89 93.598 93.565 93.598z" fill="#EF3E25" stroke="#242424" stroke-width="1.01" stroke-miterlimit="10"/>
    <path d="M430.749 193.593c51.675 0 93.566-41.905 93.566-93.599 0-51.693-41.891-93.599-93.566-93.599-51.675 0-93.565 41.906-93.565 93.6 0 51.693 41.89 93.598 93.565 93.598z" fill="#EF3E25" stroke="#242424" stroke-width="1.01" stroke-miterlimit="10"/>
    <path d="M430.748 187.786c48.469 0 87.761-39.306 87.761-87.792 0-48.486-39.292-87.791-87.761-87.791-48.468 0-87.76 39.305-87.76 87.791s39.292 87.792 87.76 87.792z" fill="#EF3E25" stroke="#242424" stroke-width="1.01" stroke-miterlimit="10"/>
    <path d="M430.748 187.786c48.469 0 87.761-39.306 87.761-87.792 0-48.486-39.292-87.791-87.761-87.791-48.468 0-87.76 39.305-87.76 87.791s39.292 87.792 87.76 87.792z" fill="#EF3E25" stroke="#242424" stroke-width="1.01" stroke-miterlimit="10"/>
    <path d="M430.748 181.967c45.256 0 81.943-36.701 81.943-81.973s-36.687-81.972-81.943-81.972-81.943 36.7-81.943 81.972c0 45.272 36.687 81.973 81.943 81.973z" fill="#EF3E25" stroke="#242424" stroke-width="1.01" stroke-miterlimit="10"/>
    <path d="M430.748 181.967c45.256 0 81.943-36.701 81.943-81.973s-36.687-81.972-81.943-81.972-81.943 36.7-81.943 81.972c0 45.272 36.687 81.973 81.943 81.973z" fill="#EF3E25" stroke="#242424" stroke-width="1.01" stroke-miterlimit="10"/>
    <path d="M430.747 176.16c42.05 0 76.138-34.101 76.138-76.166S472.797 23.83 430.747 23.83c-42.05 0-76.138 34.1-76.138 76.165 0 42.065 34.088 76.166 76.138 76.166z" fill="#EF3E25" stroke="#242424" stroke-width="1.01" stroke-miterlimit="10"/>
    <path d="M430.747 176.16c42.05 0 76.138-34.101 76.138-76.166S472.797 23.83 430.747 23.83c-42.05 0-76.138 34.1-76.138 76.165 0 42.065 34.088 76.166 76.138 76.166z" fill="#EF3E25" stroke="#242424" stroke-width="1.01" stroke-miterlimit="10"/>
    <path d="M430.751 170.34c38.837 0 70.321-31.495 70.321-70.346s-31.484-70.346-70.321-70.346c-38.838 0-70.321 31.495-70.321 70.346s31.483 70.346 70.321 70.346z" fill="#EF3E25" stroke="#242424" stroke-width="1.01" stroke-miterlimit="10"/>
    <path d="M430.751 170.34c38.837 0 70.321-31.495 70.321-70.346s-31.484-70.346-70.321-70.346c-38.838 0-70.321 31.495-70.321 70.346s31.483 70.346 70.321 70.346z" fill="#EF3E25" stroke="#242424" stroke-width="1.01" stroke-miterlimit="10"/>
    <path d="M430.75 164.533c35.631 0 64.516-28.895 64.516-64.539 0-35.643-28.885-64.538-64.516-64.538s-64.516 28.895-64.516 64.538c0 35.644 28.885 64.539 64.516 64.539z" fill="#EF3E25" stroke="#242424" stroke-width="1.01" stroke-miterlimit="10"/>
    <path d="M430.75 164.533c35.631 0 64.516-28.895 64.516-64.539 0-35.643-28.885-64.538-64.516-64.538s-64.516 28.895-64.516 64.538c0 35.644 28.885 64.539 64.516 64.539z" fill="#EF3E25" stroke="#242424" stroke-width="1.01" stroke-miterlimit="10"/>
    <path d="M430.75 158.714c32.418 0 58.698-26.29 58.698-58.72s-26.28-58.72-58.698-58.72c-32.419 0-58.699 26.29-58.699 58.72s26.28 58.72 58.699 58.72z" fill="#EF3E25" stroke="#242424" stroke-width="1.01" stroke-miterlimit="10"/>
    <path d="M430.75 158.714c32.418 0 58.698-26.29 58.698-58.72s-26.28-58.72-58.698-58.72c-32.419 0-58.699 26.29-58.699 58.72s26.28 58.72 58.699 58.72z" fill="#EF3E25" stroke="#242424" stroke-width="1.01" stroke-miterlimit="10"/>
    <path d="M430.749 152.895c29.206 0 52.882-23.685 52.882-52.9 0-29.217-23.676-52.902-52.882-52.902s-52.882 23.685-52.882 52.901c0 29.216 23.676 52.901 52.882 52.901z" fill="#EF3E25" stroke="#242424" stroke-width="1.01" stroke-miterlimit="10"/>
    <path d="M430.749 152.895c29.206 0 52.882-23.685 52.882-52.9 0-29.217-23.676-52.902-52.882-52.902s-52.882 23.685-52.882 52.901c0 29.216 23.676 52.901 52.882 52.901z" fill="#EF3E25" stroke="#242424" stroke-width="1.01" stroke-miterlimit="10"/>
    <path d="M430.748 147.088c26 0 47.077-21.085 47.077-47.094s-21.077-47.093-47.077-47.093c-25.999 0-47.076 21.084-47.076 47.093 0 26.009 21.077 47.094 47.076 47.094z" fill="#EF3E25" stroke="#242424" stroke-width="1.01" stroke-miterlimit="10"/>
    <path d="M430.748 147.088c26 0 47.077-21.085 47.077-47.094s-21.077-47.093-47.077-47.093c-25.999 0-47.076 21.084-47.076 47.093 0 26.009 21.077 47.094 47.076 47.094z" fill="#EF3E25" stroke="#242424" stroke-width="1.01" stroke-miterlimit="10"/>
    <path d="M430.748 141.269c22.787 0 41.259-18.48 41.259-41.275 0-22.795-18.472-41.274-41.259-41.274s-41.26 18.479-41.26 41.274 18.473 41.275 41.26 41.275z" fill="#EF3E25" stroke="#242424" stroke-width="1.01" stroke-miterlimit="10"/>
    <path d="M430.748 141.269c22.787 0 41.259-18.48 41.259-41.275 0-22.795-18.472-41.274-41.259-41.274s-41.26 18.479-41.26 41.274 18.473 41.275 41.26 41.275z" fill="#EF3E25" stroke="#242424" stroke-width="1.01" stroke-miterlimit="10"/>
    <path d="M430.747 135.461c19.581 0 35.454-15.879 35.454-35.467s-15.873-35.467-35.454-35.467c-19.581 0-35.454 15.88-35.454 35.467 0 19.588 15.873 35.467 35.454 35.467z" fill="#EF3E25" stroke="#242424" stroke-width="1.01" stroke-miterlimit="10"/>
    <path d="M430.747 135.461c19.581 0 35.454-15.879 35.454-35.467s-15.873-35.467-35.454-35.467c-19.581 0-35.454 15.88-35.454 35.467 0 19.588 15.873 35.467 35.454 35.467z" fill="#EF3E25" stroke="#242424" stroke-width="1.01" stroke-miterlimit="10"/>
    <path d="M430.751 129.642c16.368 0 29.637-13.274 29.637-29.648 0-16.374-13.269-29.648-29.637-29.648-16.369 0-29.638 13.274-29.638 29.648 0 16.374 13.269 29.648 29.638 29.648z" fill="#EF3E25" stroke="#242424" stroke-width="1.01" stroke-miterlimit="10"/>
    <path d="M430.751 129.642c16.368 0 29.637-13.274 29.637-29.648 0-16.374-13.269-29.648-29.637-29.648-16.369 0-29.638 13.274-29.638 29.648 0 16.374 13.269 29.648 29.638 29.648z" fill="#EF3E25" stroke="#242424" stroke-width="1.01" stroke-miterlimit="10"/>
    <path d="M430.75 123.835c13.162 0 23.832-10.674 23.832-23.84 0-13.167-10.67-23.841-23.832-23.841s-23.832 10.674-23.832 23.84c0 13.167 10.67 23.841 23.832 23.841z" fill="#EF3E25" stroke="#242424" stroke-width="1.01" stroke-miterlimit="10"/>
    <path d="M430.75 123.835c13.162 0 23.832-10.674 23.832-23.84 0-13.167-10.67-23.841-23.832-23.841s-23.832 10.674-23.832 23.84c0 13.167 10.67 23.841 23.832 23.841z" fill="#EF3E25" stroke="#242424" stroke-width="1.01" stroke-miterlimit="10"/>
    <path d="M430.749 118.016c9.95 0 18.016-8.069 18.016-18.022 0-9.953-8.066-18.021-18.016-18.021-9.949 0-18.015 8.068-18.015 18.021 0 9.953 8.066 18.022 18.015 18.022z" fill="#EF3E25" stroke="#242424" stroke-width="1.01" stroke-miterlimit="10"/>
    <path d="M430.749 118.016c9.95 0 18.016-8.069 18.016-18.022 0-9.953-8.066-18.021-18.016-18.021-9.949 0-18.015 8.068-18.015 18.021 0 9.953 8.066 18.022 18.015 18.022z" fill="#EF3E25" stroke="#242424" stroke-width="1.01" stroke-miterlimit="10"/>
    <path d="M430.749 112.208c6.743 0 12.209-5.468 12.209-12.214 0-6.745-5.466-12.214-12.209-12.214-6.743 0-12.21 5.469-12.21 12.214 0 6.746 5.467 12.214 12.21 12.214z" fill="#EF3E25" stroke="#242424" stroke-width="1.01" stroke-miterlimit="10"/>
    <path d="M430.749 112.208c6.743 0 12.209-5.468 12.209-12.214 0-6.745-5.466-12.214-12.209-12.214-6.743 0-12.21 5.469-12.21 12.214 0 6.746 5.467 12.214 12.21 12.214z" fill="#EF3E25" stroke="#242424" stroke-width="1.01" stroke-miterlimit="10"/>
    <path d="M430.748 106.389a6.394 6.394 0 0 0 6.393-6.395 6.394 6.394 0 1 0-12.786 0 6.394 6.394 0 0 0 6.393 6.395zM113.135 187.786c48.469 0 87.76-39.306 87.76-87.792 0-48.486-39.291-87.791-87.76-87.791-48.469 0-87.76 39.305-87.76 87.791s39.291 87.792 87.76 87.792z" fill="#EF3E25" stroke="#242424" stroke-width="1.01" stroke-miterlimit="10"/>
    <path d="M113.135 181.967c45.256 0 81.943-36.701 81.943-81.973s-36.687-81.972-81.943-81.972-81.944 36.7-81.944 81.972c0 45.272 36.688 81.973 81.944 81.973z" fill="#EF3E25" stroke="#242424" stroke-width="1.01" stroke-miterlimit="10"/>
    <path d="M113.135 181.967c45.256 0 81.943-36.701 81.943-81.973s-36.687-81.972-81.943-81.972-81.944 36.7-81.944 81.972c0 45.272 36.688 81.973 81.944 81.973z" fill="#EF3E25" stroke="#242424" stroke-width="1.01" stroke-miterlimit="10"/>
    <path d="M113.134 176.16c42.05 0 76.138-34.101 76.138-76.166S155.184 23.83 113.134 23.83c-42.05 0-76.138 34.1-76.138 76.165 0 42.065 34.088 76.166 76.138 76.166z" fill="#EF3E25" stroke="#242424" stroke-width="1.01" stroke-miterlimit="10"/>
    <path d="M113.134 176.16c42.05 0 76.138-34.101 76.138-76.166S155.184 23.83 113.134 23.83c-42.05 0-76.138 34.1-76.138 76.165 0 42.065 34.088 76.166 76.138 76.166z" fill="#EF3E25" stroke="#242424" stroke-width="1.01" stroke-miterlimit="10"/>
    <path d="M113.137 170.34c38.838 0 70.321-31.495 70.321-70.346s-31.483-70.346-70.321-70.346c-38.837 0-70.32 31.495-70.32 70.346s31.483 70.346 70.32 70.346z" fill="#EF3E25" stroke="#242424" stroke-width="1.01" stroke-miterlimit="10"/>
    <path d="M113.137 170.34c38.838 0 70.321-31.495 70.321-70.346s-31.483-70.346-70.321-70.346c-38.837 0-70.32 31.495-70.32 70.346s31.483 70.346 70.32 70.346z" fill="#EF3E25" stroke="#242424" stroke-width="1.01" stroke-miterlimit="10"/>
    <path d="M113.137 164.533c35.631 0 64.515-28.895 64.515-64.539 0-35.643-28.884-64.538-64.515-64.538S48.621 64.35 48.621 99.994c0 35.644 28.885 64.539 64.516 64.539z" fill="#EF3E25" stroke="#242424" stroke-width="1.01" stroke-miterlimit="10"/>
    <path d="M113.137 164.533c35.631 0 64.515-28.895 64.515-64.539 0-35.643-28.884-64.538-64.515-64.538S48.621 64.35 48.621 99.994c0 35.644 28.885 64.539 64.516 64.539z" fill="#EF3E25" stroke="#242424" stroke-width="1.01" stroke-miterlimit="10"/>
    <path d="M113.136 158.714c32.419 0 58.699-26.29 58.699-58.72s-26.28-58.72-58.699-58.72c-32.418 0-58.698 26.29-58.698 58.72s26.28 58.72 58.698 58.72z" fill="#EF3E25" stroke="#242424" stroke-width="1.01" stroke-miterlimit="10"/>
    <path d="M113.136 158.714c32.419 0 58.699-26.29 58.699-58.72s-26.28-58.72-58.699-58.72c-32.418 0-58.698 26.29-58.698 58.72s26.28 58.72 58.698 58.72z" fill="#EF3E25" stroke="#242424" stroke-width="1.01" stroke-miterlimit="10"/>
    <path d="M113.136 152.895c29.206 0 52.882-23.685 52.882-52.9 0-29.217-23.676-52.902-52.882-52.902S60.254 70.778 60.254 99.994c0 29.216 23.676 52.901 52.882 52.901z" fill="#EF3E25" stroke="#242424" stroke-width="1.01" stroke-miterlimit="10"/>
    <path d="M113.136 152.895c29.206 0 52.882-23.685 52.882-52.9 0-29.217-23.676-52.902-52.882-52.902S60.254 70.778 60.254 99.994c0 29.216 23.676 52.901 52.882 52.901z" fill="#EF3E25" stroke="#242424" stroke-width="1.01" stroke-miterlimit="10"/>
    <path d="M113.135 147.088c26 0 47.077-21.085 47.077-47.094s-21.077-47.093-47.077-47.093c-26 0-47.076 21.084-47.076 47.093 0 26.009 21.076 47.094 47.076 47.094z" fill="#EF3E25" stroke="#242424" stroke-width="1.01" stroke-miterlimit="10"/>
    <path d="M113.135 147.088c26 0 47.077-21.085 47.077-47.094s-21.077-47.093-47.077-47.093c-26 0-47.076 21.084-47.076 47.093 0 26.009 21.076 47.094 47.076 47.094z" fill="#EF3E25" stroke="#242424" stroke-width="1.01" stroke-miterlimit="10"/>
    <path d="M113.135 141.269c22.787 0 41.259-18.48 41.259-41.275 0-22.795-18.472-41.274-41.259-41.274-22.788 0-41.26 18.479-41.26 41.274s18.472 41.275 41.26 41.275z" fill="#EF3E25" stroke="#242424" stroke-width="1.01" stroke-miterlimit="10"/>
    <path d="M113.135 141.269c22.787 0 41.259-18.48 41.259-41.275 0-22.795-18.472-41.274-41.259-41.274-22.788 0-41.26 18.479-41.26 41.274s18.472 41.275 41.26 41.275z" fill="#EF3E25" stroke="#242424" stroke-width="1.01" stroke-miterlimit="10"/>
    <path d="M113.134 135.461c19.581 0 35.454-15.879 35.454-35.467s-15.873-35.467-35.454-35.467c-19.58 0-35.454 15.88-35.454 35.467 0 19.588 15.873 35.467 35.454 35.467z" fill="#EF3E25" stroke="#242424" stroke-width="1.01" stroke-miterlimit="10"/>
    <path d="M113.134 135.461c19.581 0 35.454-15.879 35.454-35.467s-15.873-35.467-35.454-35.467c-19.58 0-35.454 15.88-35.454 35.467 0 19.588 15.873 35.467 35.454 35.467z" fill="#EF3E25" stroke="#242424" stroke-width="1.01" stroke-miterlimit="10"/>
    <path d="M113.133 129.642c16.369 0 29.638-13.274 29.638-29.648 0-16.374-13.269-29.648-29.638-29.648-16.368 0-29.637 13.274-29.637 29.648 0 16.374 13.27 29.648 29.637 29.648z" fill="#EF3E25" stroke="#242424" stroke-width="1.01" stroke-miterlimit="10"/>
    <path d="M113.133 129.642c16.369 0 29.638-13.274 29.638-29.648 0-16.374-13.269-29.648-29.638-29.648-16.368 0-29.637 13.274-29.637 29.648 0 16.374 13.27 29.648 29.637 29.648z" fill="#EF3E25" stroke="#242424" stroke-width="1.01" stroke-miterlimit="10"/>
    <path d="M113.137 123.835c13.162 0 23.832-10.674 23.832-23.84 0-13.167-10.67-23.841-23.832-23.841s-23.832 10.674-23.832 23.84c0 13.167 10.67 23.841 23.832 23.841z" fill="#EF3E25" stroke="#242424" stroke-width="1.01" stroke-miterlimit="10"/>
    <path d="M113.137 123.835c13.162 0 23.832-10.674 23.832-23.84 0-13.167-10.67-23.841-23.832-23.841s-23.832 10.674-23.832 23.84c0 13.167 10.67 23.841 23.832 23.841z" fill="#EF3E25" stroke="#242424" stroke-width="1.01" stroke-miterlimit="10"/>
    <path d="M113.136 118.016c9.95 0 18.015-8.069 18.015-18.022 0-9.953-8.065-18.021-18.015-18.021-9.949 0-18.015 8.068-18.015 18.021 0 9.953 8.066 18.022 18.015 18.022z" fill="#EF3E25" stroke="#242424" stroke-width="1.01" stroke-miterlimit="10"/>
    <path d="M113.136 118.016c9.95 0 18.015-8.069 18.015-18.022 0-9.953-8.065-18.021-18.015-18.021-9.949 0-18.015 8.068-18.015 18.021 0 9.953 8.066 18.022 18.015 18.022z" fill="#EF3E25" stroke="#242424" stroke-width="1.01" stroke-miterlimit="10"/>
    <path d="M113.135 112.208c6.744 0 12.21-5.468 12.21-12.214 0-6.745-5.466-12.214-12.21-12.214-6.743 0-12.209 5.469-12.209 12.214 0 6.746 5.466 12.214 12.209 12.214z" fill="#EF3E25" stroke="#242424" stroke-width="1.01" stroke-miterlimit="10"/>
    <path d="M113.135 112.208c6.744 0 12.21-5.468 12.21-12.214 0-6.745-5.466-12.214-12.21-12.214-6.743 0-12.209 5.469-12.209 12.214 0 6.746 5.466 12.214 12.209 12.214z" fill="#EF3E25" stroke="#242424" stroke-width="1.01" stroke-miterlimit="10"/>
    <path d="M113.135 106.389a6.394 6.394 0 0 0 6.393-6.395 6.394 6.394 0 1 0-12.786 0 6.394 6.394 0 0 0 6.393 6.395zM528.866 187.786c48.468 0 87.76-39.306 87.76-87.792 0-48.486-39.292-87.791-87.76-87.791-48.469 0-87.761 39.305-87.761 87.791s39.292 87.792 87.761 87.792z" fill="#EF3E25" stroke="#242424" stroke-width="1.01" stroke-miterlimit="10"/>
    <path d="M528.865 181.967c45.256 0 81.943-36.701 81.943-81.973s-36.687-81.972-81.943-81.972-81.943 36.7-81.943 81.972c0 45.272 36.687 81.973 81.943 81.973z" fill="#EF3E25" stroke="#242424" stroke-width="1.01" stroke-miterlimit="10"/>
    <path d="M528.865 181.967c45.256 0 81.943-36.701 81.943-81.973s-36.687-81.972-81.943-81.972-81.943 36.7-81.943 81.972c0 45.272 36.687 81.973 81.943 81.973z" fill="#EF3E25" stroke="#242424" stroke-width="1.01" stroke-miterlimit="10"/>
    <path d="M528.864 176.16c42.05 0 76.138-34.101 76.138-76.166S570.914 23.83 528.864 23.83c-42.049 0-76.137 34.1-76.137 76.165 0 42.065 34.088 76.166 76.137 76.166z" fill="#EF3E25" stroke="#242424" stroke-width="1.01" stroke-miterlimit="10"/>
    <path d="M528.864 176.16c42.05 0 76.138-34.101 76.138-76.166S570.914 23.83 528.864 23.83c-42.049 0-76.137 34.1-76.137 76.165 0 42.065 34.088 76.166 76.137 76.166z" fill="#EF3E25" stroke="#242424" stroke-width="1.01" stroke-miterlimit="10"/>
    <path d="M528.864 170.34c38.837 0 70.321-31.495 70.321-70.346s-31.484-70.346-70.321-70.346c-38.837 0-70.321 31.495-70.321 70.346s31.484 70.346 70.321 70.346z" fill="#EF3E25" stroke="#242424" stroke-width="1.01" stroke-miterlimit="10"/>
    <path d="M528.864 170.34c38.837 0 70.321-31.495 70.321-70.346s-31.484-70.346-70.321-70.346c-38.837 0-70.321 31.495-70.321 70.346s31.484 70.346 70.321 70.346z" fill="#EF3E25" stroke="#242424" stroke-width="1.01" stroke-miterlimit="10"/>
    <path d="M528.863 164.533c35.631 0 64.516-28.895 64.516-64.539 0-35.643-28.885-64.538-64.516-64.538s-64.515 28.895-64.515 64.538c0 35.644 28.884 64.539 64.515 64.539z" fill="#EF3E25" stroke="#242424" stroke-width="1.01" stroke-miterlimit="10"/>
    <path d="M528.863 164.533c35.631 0 64.516-28.895 64.516-64.539 0-35.643-28.885-64.538-64.516-64.538s-64.515 28.895-64.515 64.538c0 35.644 28.884 64.539 64.515 64.539z" fill="#EF3E25" stroke="#242424" stroke-width="1.01" stroke-miterlimit="10"/>
    <path d="M528.863 158.714c32.418 0 58.698-26.29 58.698-58.72s-26.28-58.72-58.698-58.72c-32.419 0-58.699 26.29-58.699 58.72s26.28 58.72 58.699 58.72z" fill="#EF3E25" stroke="#242424" stroke-width="1.01" stroke-miterlimit="10"/>
    <path d="M528.863 158.714c32.418 0 58.698-26.29 58.698-58.72s-26.28-58.72-58.698-58.72c-32.419 0-58.699 26.29-58.699 58.72s26.28 58.72 58.699 58.72z" fill="#EF3E25" stroke="#242424" stroke-width="1.01" stroke-miterlimit="10"/>
    <path d="M528.866 152.895c29.206 0 52.882-23.685 52.882-52.9 0-29.217-23.676-52.902-52.882-52.902s-52.882 23.685-52.882 52.901c0 29.216 23.676 52.901 52.882 52.901z" fill="#EF3E25" stroke="#242424" stroke-width="1.01" stroke-miterlimit="10"/>
    <path d="M528.866 152.895c29.206 0 52.882-23.685 52.882-52.9 0-29.217-23.676-52.902-52.882-52.902s-52.882 23.685-52.882 52.901c0 29.216 23.676 52.901 52.882 52.901z" fill="#EF3E25" stroke="#242424" stroke-width="1.01" stroke-miterlimit="10"/>
    <path d="M528.866 147.088c25.999 0 47.076-21.085 47.076-47.094s-21.077-47.093-47.076-47.093c-26 0-47.077 21.084-47.077 47.093 0 26.009 21.077 47.094 47.077 47.094z" fill="#EF3E25" stroke="#242424" stroke-width="1.01" stroke-miterlimit="10"/>
    <path d="M528.866 147.088c25.999 0 47.076-21.085 47.076-47.094s-21.077-47.093-47.076-47.093c-26 0-47.077 21.084-47.077 47.093 0 26.009 21.077 47.094 47.077 47.094z" fill="#EF3E25" stroke="#242424" stroke-width="1.01" stroke-miterlimit="10"/>
    <path d="M528.865 141.269c22.787 0 41.26-18.48 41.26-41.275 0-22.795-18.473-41.274-41.26-41.274s-41.26 18.479-41.26 41.274 18.473 41.275 41.26 41.275z" fill="#EF3E25" stroke="#242424" stroke-width="1.01" stroke-miterlimit="10"/>
    <path d="M528.865 141.269c22.787 0 41.26-18.48 41.26-41.275 0-22.795-18.473-41.274-41.26-41.274s-41.26 18.479-41.26 41.274 18.473 41.275 41.26 41.275z" fill="#EF3E25" stroke="#242424" stroke-width="1.01" stroke-miterlimit="10"/>
    <path d="M528.864 135.461c19.581 0 35.455-15.879 35.455-35.467s-15.874-35.467-35.455-35.467c-19.58 0-35.454 15.88-35.454 35.467 0 19.588 15.874 35.467 35.454 35.467z" fill="#EF3E25" stroke="#242424" stroke-width="1.01" stroke-miterlimit="10"/>
    <path d="M528.864 135.461c19.581 0 35.455-15.879 35.455-35.467s-15.874-35.467-35.455-35.467c-19.58 0-35.454 15.88-35.454 35.467 0 19.588 15.874 35.467 35.454 35.467z" fill="#EF3E25" stroke="#242424" stroke-width="1.01" stroke-miterlimit="10"/>
    <path d="M528.864 129.642c16.368 0 29.637-13.274 29.637-29.648 0-16.374-13.269-29.648-29.637-29.648-16.368 0-29.637 13.274-29.637 29.648 0 16.374 13.269 29.648 29.637 29.648z" fill="#EF3E25" stroke="#242424" stroke-width="1.01" stroke-miterlimit="10"/>
    <path d="M528.864 129.642c16.368 0 29.637-13.274 29.637-29.648 0-16.374-13.269-29.648-29.637-29.648-16.368 0-29.637 13.274-29.637 29.648 0 16.374 13.269 29.648 29.637 29.648z" fill="#EF3E25" stroke="#242424" stroke-width="1.01" stroke-miterlimit="10"/>
    <path d="M528.863 123.835c13.162 0 23.832-10.674 23.832-23.84 0-13.167-10.67-23.841-23.832-23.841s-23.832 10.674-23.832 23.84c0 13.167 10.67 23.841 23.832 23.841z" fill="#EF3E25" stroke="#242424" stroke-width="1.01" stroke-miterlimit="10"/>
    <path d="M528.863 123.835c13.162 0 23.832-10.674 23.832-23.84 0-13.167-10.67-23.841-23.832-23.841s-23.832 10.674-23.832 23.84c0 13.167 10.67 23.841 23.832 23.841z" fill="#EF3E25" stroke="#242424" stroke-width="1.01" stroke-miterlimit="10"/>
    <path d="M528.863 118.016c9.949 0 18.015-8.069 18.015-18.022 0-9.953-8.066-18.021-18.015-18.021-9.95 0-18.015 8.068-18.015 18.021 0 9.953 8.065 18.022 18.015 18.022z" fill="#EF3E25" stroke="#242424" stroke-width="1.01" stroke-miterlimit="10"/>
    <path d="M528.863 118.016c9.949 0 18.015-8.069 18.015-18.022 0-9.953-8.066-18.021-18.015-18.021-9.95 0-18.015 8.068-18.015 18.021 0 9.953 8.065 18.022 18.015 18.022z" fill="#EF3E25" stroke="#242424" stroke-width="1.01" stroke-miterlimit="10"/>
    <path d="M528.866 112.208c6.743 0 12.21-5.468 12.21-12.214 0-6.745-5.467-12.214-12.21-12.214-6.743 0-12.21 5.469-12.21 12.214 0 6.746 5.467 12.214 12.21 12.214z" fill="#EF3E25" stroke="#242424" stroke-width="1.01" stroke-miterlimit="10"/>
    <path d="M528.866 112.208c6.743 0 12.21-5.468 12.21-12.214 0-6.745-5.467-12.214-12.21-12.214-6.743 0-12.21 5.469-12.21 12.214 0 6.746 5.467 12.214 12.21 12.214z" fill="#EF3E25" stroke="#242424" stroke-width="1.01" stroke-miterlimit="10"/>
    <path d="M528.865 106.389a6.394 6.394 0 0 0 6.393-6.395 6.394 6.394 0 1 0-12.785 0 6.393 6.393 0 0 0 6.392 6.395z" fill="#EF3E25" stroke="#242424" stroke-width="1.01" stroke-miterlimit="10"/>
    <path d="M18.048 49.628h605.878c9.641 0 17.462 8.85 17.462 19.762v61.209c0 10.923-7.821 19.773-17.462 19.773H18.048c-9.64 0-17.45-8.85-17.45-19.773v-61.21c0-10.911 7.81-19.76 17.45-19.76z" fill="#FBD48E" stroke="#242424" stroke-width="1.04"/>
    <path d="M51.038 105.18c0-6.488.069-14.565.184-18.944h-.058c-.875 6.626-2.983 22.089-4.607 33.14h-5.552c-1.232-9.91-3.363-26.203-4.227-33.186h-.115c.115 4.448.288 13.09.288 19.589v13.539h-5.334V81.155h8.766c1.486 9.702 3.018 20.579 3.536 25.926h.058c.622-5.416 2.684-16.777 4.216-25.926h8.466v38.163h-5.587l-.034-14.138zM67.464 81.212v29.038c0 2.788.91 4.367 3.19 4.367 2.281 0 3.088-1.786 3.088-4.367V81.212h5.886v28.922c0 6.015-2.719 9.806-9.089 9.806-6.058 0-8.96-3.284-8.96-9.794V81.212h5.885zM84.594 81.212h5.886v32.909h9.595l-.507 5.255H84.594V81.212zM103.218 86.674H97.09v-5.462h18.176v5.462h-6.163v32.702h-5.885V86.674zM123.769 81.212v38.164h-5.886V81.212h5.886zM137.855 96.63v5.381h-10.367v-5.382h10.367zM158.702 107.934v1.486c0 4.367-.725 10.486-8.8 10.486-7.061 0-8.558-4.425-8.558-10.244V90.419c0-5.9 2.672-9.806 8.662-9.806 7.153 0 8.523 4.748 8.523 10.037v1.716h-5.897v-2.408c0-2.535-.599-3.975-2.638-3.975-2.039 0-2.66 1.383-2.66 3.998v20.257c0 2.489.495 4.425 2.729 4.425 2.235 0 2.684-1.682 2.684-4.528v-2.201h5.955zM162.148 81.212h5.886v15.072h6.335V81.212h5.886v38.164h-5.886v-17.688h-6.335v17.688h-5.886V81.212zM190.529 109.166l-1.336 10.21h-5.99l6.151-38.164h8.317l6.381 38.164h-6.151l-1.498-10.21h-5.874zm5.172-5.404c-.864-6.487-1.705-12.675-2.142-16.961h-.208c-.173 3.146-1.313 11.327-2.073 16.961h4.423zM212.749 81.212v38.164h-5.886V81.212h5.886zM217.945 119.376V81.212h6.819c1.521 5.382 6.071 24.198 6.474 26.249h.069c-.276-4.701-.288-10.07-.288-16.34v-9.909h5.436v38.164h-6.554a8650.595 8650.595 0 0 1-6.669-27.09c.277 4.609.254 9.794.254 16.662v10.37l-5.541.058zM253.132 108.141v2.304c0 2.846.853 4.425 3.087 4.425 2.235 0 2.891-2.178 2.891-4.609 0-4.102-.887-5.37-4.976-8.608-4.089-3.237-6.3-5.312-6.3-10.958 0-5.035 1.52-10.117 8.408-10.105 6.888.011 8.132 5.024 8.132 9.218v2.04h-5.84v-1.879c0-2.661-.449-4.275-2.407-4.275s-2.407 1.671-2.407 4.195c0 2.696.507 4.021 3.859 6.475 5.759 4.218 7.464 6.672 7.464 13.067 0 5.404-1.901 10.543-9.02 10.543-7.118 0-8.777-4.505-8.777-9.529v-2.304h5.886zM272.554 86.674h-6.116v-5.462h18.164v5.462h-6.162v32.702h-5.886V86.674zM290.201 109.166l-1.336 10.21h-5.978l6.139-38.164h8.317l6.381 38.164h-6.151l-1.497-10.21h-5.875zm5.183-5.404c-.875-6.487-1.716-12.675-2.142-16.961h-.219c-.161 3.146-1.313 11.327-2.073 16.961h4.434zM306.59 81.212h7.832c6.6 0 9.146 3.088 9.146 8.688v1.406c0 5.416-1.877 6.914-3.547 7.663 1.704.68 4.25 2.109 4.25 7.662v2.893c0 6.452-2.696 9.852-9.33 9.852h-8.351V81.212zm7.165 15.545c3.294 0 4.273-1.026 4.273-4.806v-1.486c0-3.169-1.152-4.39-3.939-4.39h-1.82v10.682h1.486zm-1.486 17.814h1.969c3.398 0 4.239-1.498 4.239-5.197v-2.593c0-3.722-.945-5.312-4.688-5.312h-1.52v13.102zM328.062 81.212h5.909v32.909h9.595l-.495 5.255h-14.974l-.035-38.164zM360.162 101.942h-8.386v12.029h9.665l-.749 5.405h-14.801V81.212h14.732v5.462h-8.847v9.852h8.386v5.416zM381.335 107.934v1.486c0 4.367-.725 10.486-8.8 10.486-7.061 0-8.558-4.425-8.558-10.244V90.419c0-5.9 2.672-9.806 8.662-9.806 7.153 0 8.524 4.748 8.524 10.037v1.716h-5.898v-2.408c0-2.535-.599-3.975-2.638-3.975-2.038 0-2.661 1.383-2.661 3.998v20.257c0 2.489.496 4.425 2.73 4.425 2.235 0 2.684-1.682 2.684-4.528v-2.201h5.955zM403.15 91.34v17.826c0 7.317-3.099 10.774-9.572 10.774-6.197 0-8.984-3.549-8.984-10.67V91.295c0-7.306 3.674-10.648 9.364-10.648 5.69 0 9.192 3.354 9.192 10.694zm-12.567-.576v19.197c0 3.169 1.152 4.609 3.26 4.609 2.304 0 3.317-1.394 3.317-4.747V90.661c0-3.03-.933-4.701-3.317-4.701-2.119.08-3.26 1.567-3.26 4.804zM413.448 81.212v38.164h-5.886V81.212h5.886zM418.586 119.376V81.212h6.819c1.52 5.382 6.07 24.198 6.473 26.249h.07c-.277-4.701-.288-10.07-.288-16.34v-9.909h5.436v38.164h-6.565a8064.181 8064.181 0 0 1-6.658-27.09h-.058c.277 4.609.254 9.794.254 16.662v10.37l-5.483.058zM449.707 81.212h8.489c6.059 0 9.146 2.996 9.146 9.737v2.305c0 6.291-2.247 10.485-9.469 10.485h-2.304v15.683h-5.885l.023-38.21zm5.885 17.665h1.614c3.674 0 4.296-2.143 4.296-5.865v-1.879c0-2.776-.507-5.058-3.767-5.058h-2.143v12.802zM476.675 102.31v17.066h-5.886V81.212h8.155c5.76 0 9.215 2.305 9.215 9.219v1.451c0 5.865-2.407 7.363-3.881 7.963 2.223 1.048 3.455 2.65 3.455 7.835-.1 3.91.015 7.822.346 11.719H482.4c-.518-2.305-.403-8.573-.403-11.339 0-4.609-.599-5.761-4.02-5.761l-1.302.011zm0-4.862h1.348c3.11 0 4.262-1.152 4.262-5.324v-1.302c0-2.961-.611-4.747-3.951-4.747h-1.659v11.373zM510.295 91.34v17.826c0 7.317-3.11 10.774-9.572 10.774-6.197 0-8.996-3.549-8.996-10.67V91.295c0-7.306 3.686-10.648 9.376-10.648 5.69 0 9.192 3.354 9.192 10.694zm-12.567-.576v19.197c0 3.169 1.152 4.609 3.26 4.609 2.107 0 3.317-1.394 3.317-4.747V90.661c0-3.03-.933-4.701-3.317-4.701-2.12.08-3.26 1.567-3.26 4.804zM517.979 86.674h-6.127v-5.462h18.164v5.462h-6.162v32.702h-5.875V86.674zM550.333 91.34v17.826c0 7.317-3.11 10.774-9.572 10.774-6.197 0-8.995-3.549-8.995-10.67V91.295c0-7.306 3.685-10.648 9.364-10.648s9.203 3.354 9.203 10.694zm-12.578-.576v19.197c0 3.169 1.152 4.609 3.271 4.609 2.119 0 3.306-1.394 3.306-4.747V90.661c0-3.03-.921-4.701-3.317-4.701-2.12.08-3.26 1.567-3.26 4.804zM571.46 107.934v1.486c0 4.367-.725 10.486-8.8 10.486-7.061 0-8.558-4.425-8.558-10.244V90.419c0-5.9 2.672-9.806 8.662-9.806 7.153 0 8.523 4.748 8.523 10.037v1.716h-5.897v-2.408c0-2.535-.599-3.975-2.638-3.975-2.038 0-2.661 1.383-2.661 3.998v20.257c0 2.489.496 4.425 2.731 4.425 2.234 0 2.683-1.682 2.683-4.528v-2.201h5.955zM593.276 91.34v17.826c0 7.317-3.099 10.774-9.561 10.774-6.209 0-8.996-3.549-8.996-10.67V91.295c0-7.306 3.675-10.648 9.365-10.648s9.192 3.354 9.192 10.694zm-12.567-.576v19.197c0 3.169 1.152 4.609 3.259 4.609 2.108 0 3.318-1.394 3.318-4.747V90.661c0-3.03-.933-4.701-3.318-4.701-2.119.08-3.259 1.567-3.259 4.804zM597.629 81.212h5.874v32.909h9.596l-.496 5.255h-14.974V81.212z" fill="#4D526C"/>
</svg>
