<svg width="48" height="48" fill="none" xmlns="http://www.w3.org/2000/svg">
    <path d="M24 48c13.255 0 24-10.745 24-24S37.255 0 24 0 0 10.745 0 24s10.745 24 24 24z" fill="#8247E5"/>
    <path d="M31.942 18.867c-.575-.335-1.324-.335-1.957 0l-4.49 2.567-3.05 1.675-4.49 2.567c-.576.335-1.325.335-1.958 0l-3.569-2.01c-.576-.334-.979-.948-.979-1.618v-3.962c0-.67.346-1.284.979-1.62l3.511-1.953c.576-.335 1.324-.335 1.958 0l3.511 1.954c.576.335.979.949.979 1.619v2.567l3.05-1.73v-2.568c0-.67-.345-1.284-.978-1.618l-6.505-3.684c-.576-.335-1.324-.335-1.957 0l-6.62 3.684a1.801 1.801 0 0 0-.979 1.618v7.424c0 .67.346 1.283.98 1.618l6.619 3.684c.576.335 1.324.335 1.957 0l4.49-2.512 3.051-1.73 4.49-2.512c.576-.335 1.324-.335 1.957 0l3.512 1.954c.575.335.978.949.978 1.618v3.963c0 .67-.345 1.284-.978 1.619l-3.512 2.01c-.575.334-1.324.334-1.957 0l-3.511-1.954c-.576-.335-.979-.95-.979-1.619v-2.567l-3.05 1.73v2.567c0 .67.345 1.284.978 1.619l6.62 3.684c.575.334 1.324.334 1.957 0l6.62-3.684c.576-.335.978-.949.978-1.619v-7.423c0-.67-.345-1.284-.978-1.619l-6.678-3.74z" fill="#fff"/>
</svg>
