<svg width="187" height="40" fill="none" xmlns="http://www.w3.org/2000/svg">
    <path d="M72.766 12.727c1.14.677 2.106 1.607 2.72 2.876.703 1.268 1.054 2.79 1.054 4.481 0 1.692-.351 3.13-1.141 4.398-.702 1.268-1.756 2.199-3.072 2.79-1.317.677-2.897 1.016-4.564 1.016-.966 0-1.844-.17-2.722-.508-.878-.253-1.667-.761-2.282-1.353v8.795h-5.091V12.051h4.389l.439 1.86c1.93-1.522 4.038-2.283 6.232-2.283 1.492 0 2.897.338 4.038 1.1zm-2.81 10.487c.879-.761 1.317-1.776 1.317-3.045 0-1.268-.438-2.283-1.228-3.129-.79-.845-1.844-1.184-2.985-1.184-.965 0-1.843.17-2.545.592-.703.338-1.23.93-1.668 1.692v3.805c.263.761.79 1.353 1.404 1.776a4.618 4.618 0 0 0 2.458.677c1.317 0 2.37-.423 3.248-1.184zM79.528 15.686c.79-1.184 1.843-2.2 3.247-2.876a10.82 10.82 0 0 1 4.74-1.1c1.756 0 3.336.34 4.74 1.1 1.317.677 2.37 1.692 3.16 2.96.79 1.269 1.142 2.622 1.142 4.229 0 1.606-.352 2.96-1.142 4.228-.79 1.268-1.755 2.283-3.16 2.96-1.316.676-2.984 1.1-4.74 1.1-1.755 0-3.335-.34-4.74-1.016-1.404-.676-2.457-1.607-3.247-2.875a8.89 8.89 0 0 1-1.141-4.398c0-1.606.439-3.044 1.14-4.312zm5.179 7.357c.702.846 1.668 1.184 2.809 1.184 1.14 0 2.106-.423 2.808-1.184.703-.761 1.054-1.86 1.054-3.044 0-1.269-.351-2.284-1.053-3.045-.79-.846-1.668-1.268-2.897-1.268-1.141 0-2.02.422-2.809 1.183-.702.846-1.053 1.861-1.053 3.13 0 1.183.35 2.198 1.14 3.044zM104.806.042v27.823h-5.091V.041h5.091zM125.698 12.472l-10.357 22.833h-4.916l3.862-8.203-7.373-14.63h5.793l4.214 9.133 4.213-9.133h4.564zM145.182 12.472v15.391a6.57 6.57 0 0 1-1.317 3.975c-.877 1.184-2.019 2.114-3.511 2.79-1.492.677-3.072 1.015-4.827 1.015a13.45 13.45 0 0 1-3.424-.422c-.965-.339-1.755-.677-2.37-1.015a16.13 16.13 0 0 1-2.194-1.607l2.984-3.383a8.566 8.566 0 0 0 2.195 1.522c.702.339 1.667.592 2.721.592 1.316 0 2.37-.338 3.248-.93.877-.592 1.316-1.522 1.316-2.621v-2.2a5.684 5.684 0 0 1-2.282 1.946c-1.053.507-2.282.761-3.687.761-1.404 0-2.809-.338-4.037-1.1-1.229-.676-2.195-1.69-2.985-2.96-.702-1.268-1.141-2.62-1.141-4.143 0-1.522.351-2.96 1.141-4.228.79-1.269 1.756-2.284 3.072-3.045 1.229-.76 2.546-1.1 3.95-1.1 1.317 0 2.458.17 3.511.508 1.054.339 1.844.846 2.37 1.438l.527-1.184h4.74zm-5.179 9.472v-3.806a3.69 3.69 0 0 0-1.668-1.776 5.608 5.608 0 0 0-2.721-.676 4.697 4.697 0 0 0-3.16 1.183c-.877.762-1.316 1.776-1.316 3.045 0 1.184.439 2.283 1.316 3.129.878.846 1.931 1.268 3.16 1.268 2.019-.084 3.511-.845 4.389-2.367zM149.399 15.687c.79-1.268 1.843-2.199 3.248-2.96a10.816 10.816 0 0 1 4.74-1.1c1.755 0 3.335.34 4.74 1.1 1.316.677 2.37 1.692 3.16 2.96.702 1.269 1.141 2.622 1.141 4.229 0 1.606-.351 2.96-1.141 4.228-.703 1.268-1.756 2.283-3.16 2.96-1.317.676-2.985 1.099-4.74 1.099-1.756 0-3.336-.338-4.74-1.015-1.405-.676-2.458-1.607-3.248-2.875-.79-1.269-1.141-2.706-1.141-4.482 0-1.438.351-2.875 1.141-4.144zm5.091 7.357c.702.846 1.668 1.184 2.809 1.184 1.141 0 2.106-.423 2.809-1.184.702-.76 1.053-1.86 1.053-3.044 0-1.268-.351-2.283-1.053-3.044-.703-.761-1.668-1.184-2.809-1.184-1.141 0-2.019.423-2.809 1.184-.79.76-1.141 1.86-1.141 3.044.088 1.184.439 2.199 1.141 3.044zM184.423 12.98c1.053.845 1.491 1.944 1.578 3.298v11.585h-5.178v-9.725c-.087-1.522-.877-2.283-2.37-2.283-1.141 0-2.106.507-2.808 1.607-.703 1.099-1.054 2.452-1.054 4.059v6.342H169.5V12.472h4.652l.351 2.453a6.496 6.496 0 0 1 2.458-2.368c1.053-.592 2.282-.846 3.687-.846 1.492 0 2.809.423 3.775 1.268z" fill="#212121"/>
    <path d="M35.9 12.22c-.877-.508-2.018-.508-2.983 0l-6.847 3.89-4.652 2.537-6.847 3.89c-.878.507-2.019.507-2.984 0l-5.443-3.044c-.877-.508-1.492-1.438-1.492-2.453v-6.004c0-1.015.527-1.945 1.492-2.452l5.355-2.96c.878-.508 2.019-.508 2.984 0l5.355 2.96c.877.507 1.492 1.437 1.492 2.452v3.89l4.652-2.621v-3.89a2.727 2.727 0 0 0-1.492-2.453L14.57.38c-.878-.508-2.019-.508-2.984 0L1.492 5.96A2.727 2.727 0 0 0 0 8.415v11.248c0 1.015.527 1.945 1.492 2.452l10.095 5.582c.877.507 2.018.507 2.984 0l6.847-3.806 4.652-2.622 6.846-3.805c.878-.507 2.02-.507 2.985 0l5.354 2.96c.878.507 1.492 1.438 1.492 2.452v6.005a2.727 2.727 0 0 1-1.492 2.452l-5.354 3.044c-.878.508-2.019.508-2.985 0l-5.354-2.96c-.878-.507-1.492-1.437-1.492-2.452v-3.89l-4.652 2.622v3.89c0 1.014.526 1.945 1.492 2.452l10.094 5.582c.878.507 2.019.507 2.985 0l10.094-5.582c.878-.507 1.492-1.438 1.492-2.452V20.338a2.727 2.727 0 0 0-1.492-2.452L35.901 12.22z" fill="#8247E5"/>
</svg>
