<svg width="133" height="60" fill="none" xmlns="http://www.w3.org/2000/svg">
    <path d="M9.21 38.565a1.205 1.205 0 0 1-.987-.33l-5.26-5.273a1.211 1.211 0 0 1-.329-.99 1.214 1.214 0 0 1 .329-.989L16.108 18.13a1.205 1.205 0 0 1 .987-.33 1.203 1.203 0 0 1 .986.33l5.587 5.274c.329 0 .329.66.329.989a1.214 1.214 0 0 1-.33.989L10.194 38.236a1.207 1.207 0 0 1-.984.33z" fill="#F54B07"/>
    <path d="M23.672 12.855 12.827 2.307A9.433 9.433 0 0 0 6.91 0 8.965 8.965 0 0 0 .667 2.637c-.658.33-.658.66-.658.989a1.214 1.214 0 0 0 .329.99l14.794 14.173c.329.33.657.33.657.659a9.575 9.575 0 0 1 .657 12.526l7.231-6.923a7.717 7.717 0 0 0 2.63-5.933 9.018 9.018 0 0 0-2.635-6.263zM10.853 36.588c-3.287-3.626-3.614-8.9-.326-12.526l-7.234 6.923A9.018 9.018 0 0 0 .664 37.25c.027 2.352.97 4.6 2.63 6.263l15.775 16.147a1.206 1.206 0 0 0 .986.33 1.203 1.203 0 0 0 .986-.33 8.758 8.758 0 0 0 2.63-6.263 8.778 8.778 0 0 0-2.63-6.262l-9.862-9.892c.002-.326-.326-.326-.326-.656zM42.722 24.797a5.573 5.573 0 0 0-1.286.17c-.41.134-.807.304-1.187.509-.35.201-.669.453-.947.746-.1.093-.192.195-.274.305V24.97h-3.31v12.924h3.317v-5.599a4.76 4.76 0 0 1 .947-3.325 3.498 3.498 0 0 1 2.74-1.018c.18-.009.362.002.54.034.136.034.339.068.542.102l.237.067v-3.053l-.135-.034a2.047 2.047 0 0 0-1.184-.271zM130.683 24.797a5.575 5.575 0 0 0-1.286.17c-.41.134-.807.304-1.187.509-.35.201-.669.453-.947.746a2.185 2.185 0 0 0-.274.305V24.97h-3.309v12.924h3.316v-5.599a4.752 4.752 0 0 1 .947-3.325 3.497 3.497 0 0 1 2.739-1.018c.181-.009.363.002.542.034.135.034.338.068.541.102l.237.067v-3.053l-.135-.034a2.05 2.05 0 0 0-1.184-.271zM61.433 26.494a7.051 7.051 0 0 0-2.166-1.492 6.911 6.911 0 0 0-2.808-.543 6.64 6.64 0 0 0-2.774.543 6.368 6.368 0 0 0-2.131 1.492 6.532 6.532 0 0 0-1.354 2.172 7.347 7.347 0 0 0 0 5.191 6.466 6.466 0 0 0 3.485 3.664 6.64 6.64 0 0 0 2.774.543 6.91 6.91 0 0 0 2.808-.543 6.508 6.508 0 0 0 2.166-1.493 6.617 6.617 0 0 0 1.387-2.172c.313-.835.473-1.72.474-2.613 0-.881-.161-1.755-.474-2.579a6.62 6.62 0 0 0-1.387-2.17zm-3.519 8.243a3.34 3.34 0 0 1-1.42.305 3.234 3.234 0 0 1-1.422-.305 3.642 3.642 0 0 1-1.082-.814 3.823 3.823 0 0 1-.71-1.19 4.258 4.258 0 0 1-.237-1.46c-.01-.496.07-.99.237-1.458.162-.437.403-.84.71-1.191a3.64 3.64 0 0 1 1.082-.814 3.461 3.461 0 0 1 2.842 0c.424.192.804.469 1.117.814.307.35.548.754.71 1.19.176.467.269.961.274 1.46a4.14 4.14 0 0 1-.274 1.459 3.468 3.468 0 0 1-1.827 2.006v-.002zM79.7 31.414a4.641 4.641 0 0 1-.71 2.613 2.37 2.37 0 0 1-2.1 1.017 2.69 2.69 0 0 1-1.219-.274 2.61 2.61 0 0 1-.778-.713 2.752 2.752 0 0 1-.406-1.12 6.686 6.686 0 0 1-.135-1.459v-6.686h-3.313v7.668c-.005.738.052 1.476.17 2.205.112.584.342 1.138.676 1.629a3.79 3.79 0 0 0 1.522 1.29c.745.33 1.554.492 2.368.475 1.32 0 3.014-.204 3.89-1.29v.95h3.316V24.797h-3.316v6.617h.035zM98.339 34.909h-.778a4.201 4.201 0 0 1-.71-.068.837.837 0 0 1-.475-.275 1.432 1.432 0 0 1-.304-.641 6.01 6.01 0 0 1-.101-1.256v-4.954h2.875v-2.85h-2.875v-3.8h-3.316v3.8h-2.132v2.85h2.132v5.633a6.093 6.093 0 0 0 .44 2.578c.25.55.635 1.029 1.117 1.391.423.294.91.48 1.42.544.415.062.834.096 1.253.101.44 0 .845-.034 1.252-.068.406-.033.71-.067.947-.101l.169-.034v-3.023l-.274.102a2.043 2.043 0 0 1-.64.07zM116.167 26.154a5.747 5.747 0 0 0-1.929-1.255 6.076 6.076 0 0 0-2.334-.442 6.757 6.757 0 0 0-2.707.51 5.665 5.665 0 0 0-1.996 1.425 5.927 5.927 0 0 0-1.218 2.171 8.597 8.597 0 0 0-.034 5.327c.256.799.67 1.538 1.218 2.172a6 6 0 0 0 2.03 1.459 7.317 7.317 0 0 0 2.842.543 6.473 6.473 0 0 0 3.992-1.256 4.621 4.621 0 0 0 1.218-1.357c.301-.5.508-1.053.609-1.629l.034-.237h-3.315l-.034.136a3.056 3.056 0 0 1-.778 1.086 2.53 2.53 0 0 1-1.691.441 3.63 3.63 0 0 1-1.455-.237 2.758 2.758 0 0 1-.947-.641 3.287 3.287 0 0 1-.541-.95 4.471 4.471 0 0 1-.203-1.017h8.897l.034-.17c.068-.407.101-.78.135-1.085v-.78c0-.794-.161-1.579-.474-2.308a6.634 6.634 0 0 0-1.353-1.905zm-4.331.916a2.886 2.886 0 0 1 2.064.78c.498.52.777 1.214.778 1.935h-5.819a2.502 2.502 0 0 1 .846-1.968 2.975 2.975 0 0 1 2.132-.746h-.001z" fill="#F54B07"/>
</svg>
