<svg width="24" height="24" fill="none" xmlns="http://www.w3.org/2000/svg">
    <circle cx="12" cy="12" r="12" fill="#FBD48E"/>
    <path d="M18 8.198c-.451.2-.928.333-1.416.393.515-.315.9-.81 1.086-1.394a4.857 4.857 0 0 1-1.566.614 2.444 2.444 0 0 0-1.398-.776 2.41 2.41 0 0 0-1.57.262c-.48.263-.862.682-1.085 1.19a2.573 2.573 0 0 0-.147 1.621 6.857 6.857 0 0 1-2.809-.765 7.018 7.018 0 0 1-2.261-1.87 2.602 2.602 0 0 0-.04 2.46c.19.365.465.676.802.906a2.387 2.387 0 0 1-1.116-.313v.03c.003.581.202 1.143.562 1.59.361.448.862.754 1.418.867a2.305 2.305 0 0 1-.66.105 2.875 2.875 0 0 1-.462-.043c.158.5.465.935.877 1.248.412.313.908.486 1.421.496A4.86 4.86 0 0 1 6 15.863 6.825 6.825 0 0 0 9.774 17c.924.01 1.84-.17 2.696-.526a6.944 6.944 0 0 0 2.287-1.553 7.132 7.132 0 0 0 1.522-2.337c.351-.875.528-1.813.521-2.758V9.5c.47-.36.877-.8 1.2-1.302z" fill="#4D526C"/>
</svg>
