<svg width="48" height="48" fill="none" xmlns="http://www.w3.org/2000/svg">
    <path d="M24 48c13.255 0 24-10.745 24-24S37.255 0 24 0 0 10.745 0 24s10.745 24 24 24z" fill="#2775CA"/>
    <path d="M19.6 40.6c0 .6-.4.8-1 .8C11.2 39 6 32.2 6 24.2S11.2 9.4 18.6 7c.6-.2 1 .2 1 .8v1.4c0 .4-.2.8-.6 1-5.8 2.2-9.8 7.6-9.8 14s4.2 12 9.8 14c.4.2.6.6.6 1v1.4z" fill="#fff"/>
    <path d="M25.6 35.6c0 .4-.4.8-.8.8h-1.6c-.4 0-.8-.4-.8-.8v-2.4c-3.2-.4-4.8-2.2-5.4-4.8 0-.4.2-.8.6-.8h1.8c.4 0 .6.2.8.6.4 1.4 1.2 2.6 3.8 2.6 2 0 3.4-1 3.4-2.6s-.8-2.2-3.6-2.6c-4.2-.6-6.2-1.8-6.2-5.2 0-2.6 2-4.6 4.8-5V13c0-.4.4-.8.8-.8h1.6c.4 0 .8.4.8.8v2.4c2.4.4 4 1.8 4.4 4 0 .4-.2.8-.6.8h-1.6c-.4 0-.6-.2-.8-.6-.4-1.4-1.4-2-3.2-2-2 0-3 1-3 2.4s.6 2.2 3.6 2.6c4.2.6 6.2 1.8 6.2 5.2 0 2.6-2 4.8-5 5.4v2.4z" fill="#fff"/>
    <path d="M29.398 41.4c-.6.2-1-.2-1-.8v-1.4c0-.4.2-.8.6-1 5.8-2.2 9.8-7.6 9.8-14s-4.2-12-9.8-14c-.4-.2-.6-.6-.6-1V7.8c0-.6.4-.8 1-.8 7.2 2.4 12.6 9.2 12.6 17.2s-5.2 14.8-12.6 17.2z" fill="#fff"/>
</svg>
